<svg width="155" height="165" viewBox="0 0 155 165" fill="none" xmlns="http://www.w3.org/2000/svg">
<g opacity="0.5">
<g filter="url(#filter0_d_23_253)">
<path d="M95 70H125V100H95V70Z" fill="url(#paint0_linear_23_253)"/>
<path d="M65 100H95V130H65V100Z" fill="url(#paint1_linear_23_253)"/>
<path d="M105 110H135V140H105V110Z" fill="url(#paint2_linear_23_253)"/>
</g>
<rect x="65" y="70" width="30" height="30" fill="#3A3B4D"/>
<circle r="9" transform="matrix(-1 0 0 1 56 61)" fill="#3A3B4D"/>
<rect x="95" y="35" width="30" height="30" fill="#3A3B4D"/>
<rect x="125" width="30" height="30" fill="#3A3B4D"/>
<rect x="65" width="30" height="30" fill="#3A3B4D"/>
<rect x="30" y="100" width="30" height="30" fill="#3A3B4D"/>
<rect y="135" width="30" height="30" fill="#3A3B4D"/>
<rect y="70" width="30" height="30" fill="#3A3B4D"/>
</g>
<defs>
<filter id="filter0_d_23_253" x="55" y="60" width="90" height="90" filterUnits="userSpaceOnUse" color-interpolation-filters="sRGB">
<feFlood flood-opacity="0" result="BackgroundImageFix"/>
<feColorMatrix in="SourceAlpha" type="matrix" values="0 0 0 0 0 0 0 0 0 0 0 0 0 0 0 0 0 0 127 0" result="hardAlpha"/>
<feOffset/>
<feGaussianBlur stdDeviation="5"/>
<feComposite in2="hardAlpha" operator="out"/>
<feColorMatrix type="matrix" values="0 0 0 0 0 0 0 0 0 0 0 0 0 0 0 0 0 0 0.25 0"/>
<feBlend mode="normal" in2="BackgroundImageFix" result="effect1_dropShadow_23_253"/>
<feBlend mode="normal" in="SourceGraphic" in2="effect1_dropShadow_23_253" result="shape"/>
</filter>
<linearGradient id="paint0_linear_23_253" x1="135" y1="70" x2="58.7995" y2="75.0133" gradientUnits="userSpaceOnUse">
<stop stop-color="#03D99B"/>
<stop offset="1" stop-color="#0D9A75"/>
</linearGradient>
<linearGradient id="paint1_linear_23_253" x1="135" y1="70" x2="58.7995" y2="75.0133" gradientUnits="userSpaceOnUse">
<stop stop-color="#03D99B"/>
<stop offset="1" stop-color="#0D9A75"/>
</linearGradient>
<linearGradient id="paint2_linear_23_253" x1="135" y1="70" x2="58.7995" y2="75.0133" gradientUnits="userSpaceOnUse">
<stop stop-color="#03D99B"/>
<stop offset="1" stop-color="#0D9A75"/>
</linearGradient>
</defs>
</svg>
