<svg width="196" height="38" viewBox="0 0 196 38" fill="none" xmlns="http://www.w3.org/2000/svg">
<path d="M0.664 3.8H9.412C12.628 3.8 15.064 4.532 16.72 5.996C18.376 7.46 19.204 9.476 19.204 12.044C19.204 14.588 18.376 16.604 16.72 18.092C15.064 19.556 12.628 20.288 9.412 20.288H6.748V29H0.664V3.8ZM9.412 8.804H6.748V15.248H9.412C10.636 15.248 11.596 14.972 12.292 14.42C12.988 13.868 13.336 13.076 13.336 12.044C13.336 10.988 12.988 10.184 12.292 9.632C11.596 9.08 10.636 8.804 9.412 8.804ZM32.0026 18.092C31.7146 17.804 31.4026 17.576 31.0666 17.408C30.7546 17.24 30.3586 17.156 29.8786 17.156C29.0866 17.156 28.4386 17.468 27.9346 18.092C27.4546 18.716 27.2146 19.628 27.2146 20.828V29H21.8506V12.44H27.2146V14.528C27.7426 13.76 28.3666 13.16 29.0866 12.728C29.8306 12.272 30.5986 12.044 31.3906 12.044C31.9906 12.044 32.5666 12.176 33.1186 12.44C33.6706 12.68 34.0906 13.004 34.3786 13.412L32.0026 18.092ZM35.152 20.72C35.152 18.968 35.56 17.444 36.376 16.148C37.216 14.852 38.344 13.844 39.76 13.124C41.2 12.404 42.82 12.044 44.62 12.044C46.444 12.044 48.064 12.404 49.48 13.124C50.896 13.844 52.012 14.852 52.828 16.148C53.668 17.444 54.088 18.968 54.088 20.72C54.088 22.448 53.668 23.96 52.828 25.256C52.012 26.552 50.896 27.56 49.48 28.28C48.064 29 46.444 29.36 44.62 29.36C42.82 29.36 41.2 29 39.76 28.28C38.344 27.56 37.216 26.552 36.376 25.256C35.56 23.96 35.152 22.448 35.152 20.72ZM40.768 20.72C40.768 21.992 41.14 23 41.884 23.744C42.652 24.488 43.564 24.86 44.62 24.86C45.676 24.86 46.576 24.488 47.32 23.744C48.088 23 48.472 21.992 48.472 20.72C48.472 19.448 48.088 18.44 47.32 17.696C46.576 16.928 45.676 16.544 44.62 16.544C43.564 16.544 42.652 16.928 41.884 17.696C41.14 18.44 40.768 19.448 40.768 20.72ZM56.8192 6.248C56.8192 5.384 57.1192 4.676 57.7192 4.124C58.3432 3.572 59.0992 3.296 59.9872 3.296C60.8752 3.296 61.6192 3.572 62.2192 4.124C62.8432 4.676 63.1552 5.384 63.1552 6.248C63.1552 7.112 62.8432 7.82 62.2192 8.372C61.6192 8.9 60.8752 9.164 59.9872 9.164C59.0992 9.164 58.3432 8.9 57.7192 8.372C57.1192 7.82 56.8192 7.112 56.8192 6.248ZM54.0112 31.772C54.2272 32.036 54.4672 32.252 54.7312 32.42C54.9952 32.588 55.3072 32.672 55.6672 32.672C56.8192 32.672 57.3952 31.856 57.3952 30.224V12.44H62.6512V31.592C62.6512 33.392 62.1232 34.844 61.0672 35.948C60.0112 37.052 58.4512 37.604 56.3872 37.604C55.1872 37.604 54.2272 37.4 53.5072 36.992C52.7872 36.584 52.2232 36.176 51.8152 35.768L54.0112 31.772ZM75.5567 29.36C73.6127 29.36 71.9327 29.012 70.5167 28.316C69.1247 27.596 68.0447 26.588 67.2767 25.292C66.5087 23.996 66.1247 22.472 66.1247 20.72C66.1247 18.032 66.9527 15.92 68.6087 14.384C70.2647 12.848 72.5447 12.08 75.4487 12.08C78.3047 12.08 80.5007 12.812 82.0367 14.276C83.5967 15.74 84.3767 17.804 84.3767 20.468C84.3767 20.732 84.3767 20.984 84.3767 21.224C84.3767 21.464 84.3647 21.68 84.3407 21.872H71.7047C71.8487 23 72.2447 23.876 72.8927 24.5C73.5407 25.124 74.3927 25.436 75.4487 25.436C77.3687 25.436 78.7367 24.716 79.5527 23.276L84.4487 24.464C82.6967 27.728 79.7327 29.36 75.5567 29.36ZM75.3407 15.716C73.3727 15.716 72.1847 16.76 71.7767 18.848H78.5447C78.4487 17.888 78.1127 17.132 77.5367 16.58C76.9847 16.004 76.2527 15.716 75.3407 15.716ZM92.3054 20.72C92.3054 22.04 92.7374 23.084 93.6014 23.852C94.4654 24.62 95.5094 25.004 96.7334 25.004C97.7174 25.004 98.6534 24.8 99.5414 24.392C100.429 23.96 101.113 23.348 101.593 22.556V27.848C101.017 28.304 100.297 28.676 99.4334 28.964C98.5694 29.228 97.5134 29.36 96.2654 29.36C94.4174 29.36 92.7734 29 91.3334 28.28C89.8934 27.56 88.7534 26.552 87.9134 25.256C87.0974 23.96 86.6894 22.448 86.6894 20.72C86.6894 18.968 87.0974 17.456 87.9134 16.184C88.7534 14.888 89.8934 13.88 91.3334 13.16C92.7734 12.44 94.4174 12.08 96.2654 12.08C97.5134 12.08 98.5694 12.224 99.4334 12.512C100.297 12.776 101.017 13.112 101.593 13.52V18.848C101.113 18.056 100.405 17.456 99.4694 17.048C98.5334 16.64 97.6214 16.436 96.7334 16.436C95.9174 16.436 95.1734 16.628 94.5014 17.012C93.8294 17.372 93.2894 17.876 92.8814 18.524C92.4974 19.172 92.3054 19.904 92.3054 20.72ZM103.543 12.44H106.459V6.68H111.715V12.44H114.631V16.94H111.715V29H106.459V16.94H103.543V12.44Z" fill="white"/>
<path d="M128.281 3.8H134.365V12.98H145.201V3.8H151.285V29H145.201V18.452H134.365V29H128.281V3.8ZM161.766 22.52C161.766 23.48 161.934 24.224 162.27 24.752C162.63 25.28 163.254 25.544 164.142 25.544C165.006 25.544 165.702 25.28 166.23 24.752C166.758 24.224 167.022 23.48 167.022 22.52V12.44H172.494V29H167.022V26.516C166.542 27.404 165.882 28.112 165.042 28.64C164.226 29.144 163.206 29.396 161.982 29.396C159.942 29.396 158.442 28.844 157.482 27.74C156.522 26.612 156.042 25.064 156.042 23.096V12.44H161.766V22.52ZM195.685 20.72C195.685 22.568 195.301 24.14 194.533 25.436C193.789 26.732 192.817 27.716 191.617 28.388C190.417 29.036 189.145 29.36 187.801 29.36C185.353 29.36 183.469 28.364 182.149 26.372V29H176.713V0.919999H182.149V15.068C183.469 13.076 185.353 12.08 187.801 12.08C189.145 12.08 190.417 12.416 191.617 13.088C192.817 13.736 193.789 14.708 194.533 16.004C195.301 17.276 195.685 18.848 195.685 20.72ZM189.961 20.72C189.961 19.424 189.565 18.392 188.773 17.624C188.005 16.856 187.081 16.472 186.001 16.472C185.401 16.472 184.801 16.64 184.201 16.976C183.601 17.312 183.109 17.792 182.725 18.416C182.341 19.04 182.149 19.808 182.149 20.72C182.149 21.608 182.341 22.376 182.725 23.024C183.109 23.648 183.601 24.128 184.201 24.464C184.801 24.8 185.401 24.968 186.001 24.968C187.081 24.968 188.005 24.584 188.773 23.816C189.565 23.048 189.961 22.016 189.961 20.72Z" fill="#02CA8D"/>
</svg>
