<svg width="46" height="32" viewBox="0 0 46 32" fill="none" xmlns="http://www.w3.org/2000/svg">
<g opacity="0.5">
<path d="M29.3189 0C20.3288 0 13.1786 7.1896 13.1786 16C13.1786 24.912 20.4313 32 29.3189 32C38.2058 32 45.4593 24.8104 45.4593 16C45.4593 7.1896 38.2058 0 29.3189 0ZM29.3189 21.8736C26.0497 21.8736 23.2905 19.1392 23.2905 15.8984C23.2905 12.6584 26.0497 9.924 29.3189 9.924C32.5874 9.924 35.3458 12.6584 35.3458 15.8984C35.2433 19.2408 32.5874 21.8736 29.3181 21.8736H29.3189ZM13.0761 4.5568V27.848H7.35435L0 4.5568H13.0761Z" fill="white"/>
</g>
</svg>
