<svg width="72" height="22" viewBox="0 0 72 22" fill="none" xmlns="http://www.w3.org/2000/svg">
<g opacity="0.5">
<path d="M67.1579 0.314209H62.6316C61.2632 0.314209 60.2105 0.733257 59.579 2.09516L50.9474 21.6856H57.0527C57.0527 21.6856 58.1053 19.0666 58.3158 18.438C58.9474 18.438 64.9474 18.438 65.7895 18.438C66 19.1714 66.5263 21.5809 66.5263 21.5809H72L67.1579 0.314209ZM60 14.038C60.5263 12.7809 62.3158 8.06659 62.3158 8.06659C62.3158 8.17135 62.8421 6.80945 63.0527 6.07611L63.4737 7.96183C63.4737 7.96183 64.6316 13.0952 64.8421 14.1428H60V14.038Z" fill="white"/>
<path d="M51.3684 14.6667C51.3684 19.0667 47.3684 22 41.1579 22C38.5263 22 36 21.4762 34.6316 20.8476L35.4737 16.0286L36.2105 16.3429C38.1053 17.181 39.3684 17.4952 41.6842 17.4952C43.3684 17.4952 45.1579 16.8667 45.1579 15.4C45.1579 14.4571 44.4211 13.8286 42.1053 12.781C39.8947 11.7333 36.9474 10.0571 36.9474 7.01905C36.9474 2.82857 41.0526 0 46.8421 0C49.0526 0 50.9474 0.419048 52.1053 0.942857L51.2632 5.55238L50.8421 5.13333C49.7895 4.71429 48.4211 4.29524 46.4211 4.29524C44.2105 4.4 43.1579 5.34286 43.1579 6.18095C43.1579 7.12381 44.4211 7.85714 46.4211 8.8C49.7895 10.3714 51.3684 12.1524 51.3684 14.6667Z" fill="white"/>
<path d="M0 0.523784L0.105263 0.104736H9.15789C10.4211 0.104736 11.3684 0.523784 11.6842 1.88569L13.6842 11.3143C11.6842 6.28569 7.05263 2.19997 0 0.523784Z" fill="white"/>
<path d="M26.421 0.314235L17.2631 21.5809H11.0526L5.78943 3.77138C9.5789 6.1809 12.7368 9.95233 13.8947 12.5714L14.5263 14.7714L20.2105 0.209473H26.421V0.314235Z" fill="white"/>
<path d="M28.842 0.209473H34.6315L30.9473 21.5809H25.1578L28.842 0.209473Z" fill="white"/>
</g>
</svg>
