<svg width="57" height="34" viewBox="0 0 57 34" fill="none" xmlns="http://www.w3.org/2000/svg">
<g opacity="0.5">
<path fill-rule="evenodd" clip-rule="evenodd" d="M33.8913 14.3845C33.8499 14.0893 33.8057 13.7983 33.7615 13.5128H23.3993L23.4139 13.4256H23.2517C23.3144 13.0318 23.4127 12.6699 23.5222 12.2668C23.5722 12.0828 23.6246 11.8902 23.6769 11.6821H33.06C32.8846 11.0718 32.6215 10.4615 32.3585 9.85128H24.3871C24.6826 9.21931 25.0159 8.60806 25.3841 8.02051H31.3938C31.0431 7.41026 30.6046 6.8 30.0785 6.18974H26.7462C27.2723 5.57949 27.7985 5.05641 28.5 4.44615L28.4354 4.38608C31.4513 1.6647 35.4415 0 39.8124 0C49.3708 0 57.0001 7.67179 57.0001 17C57.0001 26.3282 49.3708 34 39.9001 34C35.5376 34 31.5353 32.3417 28.5012 29.6295C28.5155 29.6171 28.5298 29.6046 28.5441 29.5921C28.5587 29.5794 28.5732 29.5666 28.5877 29.5538C29.1629 29.0637 29.6611 28.4971 30.2265 27.8538L30.3415 27.7231H26.8338C26.3954 27.2 25.9569 26.5897 25.6062 25.9795H31.5692C31.92 25.4564 32.2708 24.8462 32.5338 24.1487H24.5538C24.2908 23.6256 24.0277 23.0154 23.8523 22.3179H33.2354C33.4868 21.5681 33.6982 20.7784 33.8504 19.9489C34.3492 20.9474 35.277 21.5333 36.6554 21.5333C37.4447 21.6205 38.4093 21.3589 38.4093 21.3589L38.76 19.3538C38.76 19.3538 37.8831 19.7897 37.1816 19.7897C35.9539 19.7897 35.34 18.8307 35.34 17.6974C35.34 15.5179 36.3923 14.3846 37.7077 14.3846C38.5847 14.3846 39.3739 14.9076 39.3739 14.9076L39.637 12.9897C39.637 12.9897 38.5847 12.5538 37.5323 12.5538C36.1043 12.5538 34.7166 13.3967 33.972 15.0008C33.9504 14.822 33.9272 14.6443 33.9029 14.468C33.9146 14.4397 33.926 14.4119 33.937 14.3845H33.8913ZM33.8913 14.3845H33.5862C32.797 14.3845 32.0954 15.4307 32.0954 15.4307L32.2708 14.4717H30.517L29.377 21.4461H31.3939C31.4861 20.9264 31.5649 20.4228 31.6392 19.948C31.9885 17.7145 32.2384 16.1173 33.3231 16.4768C33.4757 15.4911 33.6946 14.967 33.8644 14.5604L33.8645 14.5602C33.8776 14.5288 33.8904 14.4981 33.9029 14.468C33.899 14.4401 33.8952 14.4123 33.8913 14.3845ZM33.972 15.0008C33.6192 15.7608 33.4108 16.6916 33.4108 17.7846C33.4108 18.626 33.5558 19.3594 33.8504 19.9489C34.0167 19.0425 34.1123 18.0886 34.1123 17.0872C34.1123 16.3862 34.0545 15.6853 33.972 15.0008ZM23.2411 20.8205L23.1508 21.359C22.9754 21.4461 22.537 21.6205 22.0108 21.6205C21.1339 21.6205 20.5201 21.0974 20.5201 20.0513C20.5201 19.3538 21.5724 13.4256 21.5724 13.4256H23.1812C22.9503 14.493 22.8204 15.5964 22.8023 16.7252L22.3616 19.3538C22.2739 19.5282 22.3616 19.8769 22.9754 19.8769C22.9996 19.8769 23.0237 19.8753 23.0476 19.8724C23.1031 20.1915 23.1677 20.5076 23.2411 20.8205ZM23.2411 20.8205C24.05 24.2692 25.9272 27.3286 28.5012 29.6295C25.4445 32.2889 21.5304 34 17.1 34C7.62923 34 0 26.3282 0 17C0 7.67179 7.71692 0.261538 17.0123 0C21.4524 0 25.4604 1.63265 28.4354 4.38608C27.258 5.44855 26.2291 6.67209 25.3841 8.02051H25.3431C25.1967 8.31164 25.0502 8.57239 24.9102 8.82177L24.9102 8.8218C24.7147 9.16985 24.5317 9.49577 24.3785 9.85128H24.3871C23.8584 10.9821 23.4509 12.1793 23.1812 13.4256H23.2517C23.2471 13.4545 23.2427 13.4836 23.2385 13.5128H23.3993L23.2385 14.4718H24.1154L23.8524 16.2154H22.8878L22.8023 16.7252C22.8008 16.8166 22.8001 16.9082 22.8001 17C22.8001 17.978 22.8849 18.9378 23.0476 19.8724C23.1254 19.8631 23.2009 19.8412 23.266 19.8222L23.266 19.8222C23.3262 19.8047 23.3776 19.7897 23.4139 19.7897L23.2411 20.8205ZM26.9216 21.6203C25.5185 21.6203 23.7646 21.01 23.7646 18.4818C23.7646 16.2152 25.1677 14.21 26.9216 14.2972C28.9385 14.2972 29.5523 15.7793 29.5523 16.9126C29.5523 17.4357 29.2893 18.569 29.2893 18.569H25.6062C25.6062 18.569 25.2554 20.0511 27.2723 20.0511C28.2369 20.0511 29.2016 19.6152 29.2016 19.6152L28.8508 21.3588C28.8508 21.3588 28.2369 21.6203 26.9216 21.6203ZM27.7134 17.0477C27.7314 16.8276 27.8099 15.8665 26.9216 15.8665C26.1446 15.8665 25.8797 16.6017 25.7602 16.9333C25.7313 17.0135 25.7109 17.07 25.6939 17.087H27.7108C27.7108 17.0801 27.7119 17.0666 27.7134 17.0477ZM11.0493 14.5588C11.0493 14.5588 12.0139 14.2101 13.2416 14.2101C13.8555 14.2101 15.6093 14.2972 15.6093 16.4767L14.9078 21.446H13.417L13.5047 20.7485C13.4862 20.7485 13.4443 20.7834 13.3782 20.8385L13.3782 20.8385L13.3782 20.8385C13.1308 21.0446 12.5442 21.5331 11.5755 21.5331C10.8739 21.5331 9.82162 21.1844 9.82162 19.528C9.82162 17.4357 11.4878 16.8255 13.0662 16.8255H13.8555C13.8555 16.8255 13.9432 16.7383 13.9432 16.3896C13.9432 15.8665 13.417 15.7793 12.8032 15.7793C11.5755 15.7793 10.7862 16.128 10.7862 16.128L11.0493 14.5588ZM12.3647 19.9639C13.417 19.9639 13.5924 18.4819 13.5924 18.2203H13.3293C11.9262 18.2203 11.6632 18.8306 11.6632 19.2665C11.6632 19.528 11.8385 19.9639 12.3647 19.9639ZM17.3631 21.5332L17.4072 21.5333C17.9357 21.5361 20.0816 21.5475 20.0816 19.1793C20.0816 17.7803 19.2464 17.4108 18.607 17.128C18.2105 16.9526 17.8893 16.8105 17.8893 16.4768C17.8893 16.0409 18.24 15.8665 18.8539 15.8665C19.117 15.8665 20.0816 15.9537 20.0816 15.9537L20.3447 14.2973C20.3447 14.2973 19.7308 14.1229 18.5908 14.1229C17.2754 14.1229 15.8723 14.646 15.8723 16.4768C15.8723 17.7744 16.7493 18.2002 17.4155 18.5236C17.8235 18.7217 18.1523 18.8813 18.1523 19.1793C18.1523 19.7024 17.5385 19.7896 17.1 19.7896C16.3108 19.7896 15.4339 19.528 15.4339 19.528L15.1708 21.1845C15.3462 21.3588 15.8723 21.5332 17.3631 21.5332ZM53.1416 15.2563L53.4924 12.8152L55.4216 12.9896L54.1062 21.6204H52.2647L52.3524 21.0101C52.3524 21.0101 51.6508 21.7076 50.5985 21.7076C49.0201 21.7076 48.3185 20.2255 48.3185 18.7434C48.3185 16.3896 49.7216 14.3845 51.3878 14.3845C52.4401 14.3845 53.1416 15.2563 53.1416 15.2563ZM51.1247 19.7896C52.177 19.7896 52.6155 18.4819 52.6155 17.5229C52.6155 16.4768 52.2647 16.0409 51.6508 15.9537C50.7739 15.9537 50.1601 16.8255 50.1601 18.3076C50.1601 19.2665 50.5108 19.7896 51.1247 19.7896ZM3.33237 21.446L4.38468 14.9947L4.56007 21.446H5.78776L8.15545 14.9947L7.19083 21.446H9.12006L10.6108 12.8152H7.6293L5.78776 18.1332L5.70007 12.8152H3.0693L1.57853 21.446H3.33237ZM42.6185 14.2101C41.3908 14.2101 40.4262 14.5588 40.4262 14.5588L40.1631 16.128C40.1631 16.128 40.9524 15.7793 42.1801 15.7793C42.7939 15.7793 43.3201 15.8665 43.3201 16.3896C43.3201 16.7383 43.2324 16.8255 43.2324 16.8255H42.4431C40.8647 16.8255 39.1985 17.4357 39.1985 19.528C39.1985 21.1844 40.2508 21.5331 40.9524 21.5331C41.9211 21.5331 42.5077 21.0446 42.7551 20.8385C42.8212 20.7834 42.8631 20.7485 42.8816 20.7485L42.7939 21.446H44.4601L45.1616 16.4767C45.1616 14.2972 43.2324 14.2101 42.6185 14.2101ZM43.057 18.2203C43.057 18.4819 42.8816 19.9639 41.8293 19.9639C41.3031 19.9639 41.1278 19.528 41.1278 19.2665C41.1278 18.8306 41.3908 18.2203 42.7939 18.2203H43.057ZM46.8099 19.9479L46.8098 19.948C46.7356 20.4228 46.6568 20.9263 46.5646 21.4459H44.5477L45.6877 14.4716H47.4415L47.2661 15.4305C47.2661 15.4305 47.9677 14.3844 48.7569 14.3844H49.1077C49.0849 14.4411 49.0605 14.4993 49.0352 14.5601L49.0351 14.5602C48.8653 14.9668 48.6464 15.4909 48.4938 16.4767C47.409 16.1172 47.1592 17.7143 46.8099 19.9479Z" fill="white"/>
</g>
</svg>
