<svg width="32" height="32" viewBox="0 0 32 32" fill="none" xmlns="http://www.w3.org/2000/svg">
<g opacity="0.5">
<path d="M25.1456 20.1209C25.6889 20.3486 25.9217 21.1079 25.9217 21.4876C25.9993 22.095 25.8441 22.3987 25.6113 22.3987C25.3784 22.3987 25.068 22.1709 24.7576 21.6394C24.4471 21.1079 24.2919 20.5764 24.4471 20.2727C24.68 20.1209 24.9128 20.0449 25.1456 20.1209Z" fill="white"/>
<path d="M21.9635 22.4746C22.274 22.4746 22.662 22.6265 23.0501 22.9302C23.671 23.4617 23.9038 24.0691 23.5933 24.5247C23.4381 24.7524 23.0501 24.9043 22.7396 24.9043C22.3516 24.9043 21.9635 24.7524 21.7307 24.5247C21.1098 23.9932 20.9546 23.2339 21.3427 22.7783C21.4203 22.6265 21.6531 22.4746 21.9635 22.4746Z" fill="white"/>
<path d="M14.5906 28.4729C6.51922 28.4729 0 22.095 0 14.2744C0 6.45385 6.51922 0 14.5906 0C22.6621 0 29.1813 6.37793 29.1813 14.2744C29.1813 16.9319 28.4052 19.4375 27.1634 21.5635C27.0858 21.6394 27.0082 21.6394 27.0082 21.4875C26.4649 17.9949 24.2919 16.0967 21.1875 15.4893C20.877 15.4133 20.877 15.2615 21.2651 15.2615C22.274 15.1855 23.5934 15.1855 24.3695 15.3374C24.4471 14.9578 24.4471 14.5781 24.4471 14.2744C24.4471 9.11132 20.1009 4.85937 14.8235 4.85937C9.546 4.85937 5.19986 9.11132 5.19986 14.2744C5.19986 19.4375 9.546 23.6894 14.8235 23.6894H15.2891C15.1339 22.8542 15.0563 22.019 15.1339 21.1079C15.1339 20.5005 15.2891 20.4246 15.522 20.8801C16.8413 23.1579 18.7816 25.1321 22.5068 25.9673C25.5336 26.6506 28.5604 27.4099 31.8976 31.4341C32.2081 31.8137 31.7424 32.1933 31.432 31.8896C28.0947 29.0044 25.068 28.0173 22.274 28.0173C18.7816 28.0933 16.6861 28.4729 14.5906 28.4729Z" fill="white"/>
</g>
</svg>
