<svg width="50" height="50" viewBox="0 0 50 50" fill="none" xmlns="http://www.w3.org/2000/svg">
<ellipse cx="24.9543" cy="24.0404" rx="18.887" ry="18.861" fill="white"/>
<path fill-rule="evenodd" clip-rule="evenodd" d="M22.896 0.0321097C21.764 0.149478 20.2363 0.397798 19.3241 0.612793C10.0952 2.78826 2.84587 9.98611 0.629435 19.1746C0.114105 21.3108 0 22.365 0 24.9893C0 27.559 0.112833 28.6415 0.590585 30.6574C2.89597 40.3843 10.7167 47.8125 20.5524 49.617C23.7567 50.2049 27.4527 50.1125 30.6759 49.364C39.8583 47.2317 47.1694 39.9721 49.3679 30.8039C49.8883 28.6337 50 27.6068 50 24.9893C50 23.1704 49.9578 22.3249 49.8245 21.4712C48.9719 16.0086 46.6559 11.3525 42.8786 7.50673C38.9898 3.54739 34.124 1.05813 28.6208 0.212804C27.6333 0.0610364 23.7876 -0.0602407 22.896 0.0321097ZM31.5708 10.6202C32.8348 11.0103 33.7924 11.8496 34.3741 13.0773L34.7371 13.8433L36.5475 13.8465C37.5432 13.8482 38.5202 13.8947 38.7186 13.9498C39.731 14.2305 39.9068 15.576 38.9929 16.048C38.7691 16.1636 38.2929 16.194 36.7084 16.194H34.7065L34.5516 16.648C33.8678 18.6523 31.6415 19.9717 29.5016 19.641C27.833 19.3831 26.3406 18.1692 25.8215 16.648L25.6666 16.194H18.4782C12.2922 16.194 11.2505 16.1737 11.0071 16.048C10.0932 15.576 10.269 14.2305 11.2814 13.9498C11.5115 13.8859 14.1768 13.8485 18.6391 13.8465L25.6361 13.8433L25.995 13.0856C26.5687 11.8748 27.5466 11.0167 28.8155 10.6112C29.5643 10.3717 30.7788 10.3757 31.5708 10.6202ZM29.5233 12.8196C27.872 13.3345 27.3107 15.4177 28.495 16.6354C29.4484 17.6159 30.9247 17.6159 31.8782 16.6354C33.0758 15.4041 32.5024 13.3182 30.8293 12.8197C30.253 12.648 30.0735 12.648 29.5233 12.8196ZM21.1322 20.4462C22.7312 20.7846 24.0831 21.936 24.5755 23.379L24.7248 23.8166H31.6668C39.2742 23.8166 39.125 23.8055 39.4279 24.3904C39.7502 25.0129 39.5215 25.7812 38.9417 26.0231C38.6646 26.1387 37.4451 26.162 31.6668 26.162H24.7248L24.5755 26.5996C23.9061 28.5613 21.6305 29.924 19.5792 29.5914C17.9578 29.3284 16.6353 28.3409 15.9924 26.9129L15.6544 26.1622L13.5228 26.1621C11.1529 26.162 10.8375 26.1006 10.5721 25.5882C10.2498 24.9656 10.4785 24.1974 11.0583 23.9555C11.3113 23.8499 11.9021 23.8166 13.5228 23.8165L15.6544 23.8164L15.9924 23.0657C16.5927 21.7323 17.8055 20.7609 19.2665 20.4435C20.0497 20.2733 20.3163 20.2737 21.1322 20.4462ZM19.3241 22.8473C18.3889 23.27 17.9124 23.993 17.9124 24.9893C17.9124 25.9856 18.3889 26.7086 19.3241 27.1313C20.7692 27.7846 22.5535 26.6011 22.5535 24.9893C22.5535 24.3746 22.3297 23.8796 21.8229 23.3735C21.0824 22.634 20.2047 22.4492 19.3241 22.8473ZM26.9684 30.3641C28.4091 30.6309 29.8102 31.7669 30.3544 33.1097L30.6269 33.7821L34.6686 33.7834C38.0611 33.7844 38.7555 33.808 38.9929 33.9306C39.9068 34.4026 39.731 35.7481 38.7186 36.0288C38.5007 36.0893 36.825 36.1291 34.486 36.1294L30.614 36.13L30.3892 36.6719C29.3101 39.2715 26.2079 40.3394 23.762 38.9533C23.0324 38.5398 22.1557 37.5612 21.8149 36.7799L21.5314 36.13L16.5867 36.1294C13.5159 36.1291 11.5054 36.091 11.2814 36.0288C10.4392 35.7953 10.1311 34.7935 10.7043 34.1526L10.9899 33.8334L16.274 33.8066L21.5582 33.7797L21.7122 33.3282C22.073 32.2707 23.018 31.2371 24.0809 30.7374C25.0291 30.2918 25.9409 30.1738 26.9684 30.3641ZM25.1468 32.7894C24.2764 33.1981 23.7842 33.9787 23.7797 34.9573C23.7772 35.4811 23.8251 35.6746 24.0524 36.0608C24.6091 37.0066 25.6865 37.4582 26.6907 37.1666C28.1982 36.729 28.8769 35.0179 28.064 33.7047C27.6537 33.042 27.0067 32.6737 26.186 32.6357C25.7072 32.6135 25.4361 32.6536 25.1468 32.7894Z" fill="#02CA8D"/>
</svg>
