<svg width="50" height="50" viewBox="0 0 50 50" fill="none" xmlns="http://www.w3.org/2000/svg">
<circle cx="25" cy="25" r="25" fill="#F57070"/>
<path fill-rule="evenodd" clip-rule="evenodd" d="M17.5805 13.5677C13.6497 15.53 10.3755 17.1981 10.3044 17.2746C9.89416 17.7161 9.89991 18.4734 10.3168 18.9062C10.3944 18.9868 11.5683 19.6062 12.9256 20.2826C14.2828 20.9591 15.3933 21.5263 15.3933 21.543C15.3933 21.5597 14.2828 22.1269 12.9256 22.8033C11.5683 23.4797 10.3944 24.0991 10.3168 24.1797C9.89439 24.6183 9.89439 25.3817 10.3168 25.8203C10.3944 25.9009 11.5683 26.5203 12.9256 27.1967C14.2828 27.8731 15.3933 28.4403 15.3933 28.457C15.3933 28.4737 14.2828 29.0409 12.9256 29.7174C11.5683 30.3938 10.3944 31.0132 10.3168 31.0938C9.89991 31.5266 9.89416 32.2839 10.3044 32.7254C10.3755 32.8019 13.6497 34.47 17.5805 36.4323C24.1606 39.7171 24.7505 40 25.0195 40C25.2886 40 25.8796 39.7166 32.4725 36.4256C40.6699 32.3338 39.986 32.7445 39.986 31.9141C39.986 31.134 40.0647 31.1944 37.1403 29.7331C35.7679 29.0474 34.6451 28.4731 34.6451 28.457C34.6451 28.4409 35.7679 27.8667 37.1403 27.181C40.0647 25.7197 39.986 25.7801 39.986 25C39.986 24.2199 40.0647 24.2803 37.1403 22.819C35.7679 22.1333 34.6451 21.5591 34.6451 21.543C34.6451 21.5269 35.7679 20.9526 37.1403 20.2669C40.0647 18.8056 39.986 18.866 39.986 18.0859C39.986 17.2555 40.6699 17.6662 32.4725 13.5744C25.8796 10.2834 25.2886 10 25.0195 10C24.7505 10 24.1606 10.2829 17.5805 13.5677ZM30.6243 15.288C33.6749 16.8106 36.1709 18.0697 36.1709 18.0861C36.1709 18.1023 33.6617 19.368 30.595 20.8984L25.0191 23.6812L19.4431 20.8984C16.3764 19.368 13.8672 18.1023 13.8672 18.0861C13.8672 18.0449 24.9137 12.5269 25.0043 12.5228C25.0446 12.521 27.5736 13.7653 30.6243 15.288ZM21.4398 24.5312C24.3231 25.9693 24.7635 26.1722 25.0062 26.1745C25.2537 26.1769 25.6377 26.0008 28.6143 24.52L31.9455 22.8629L34.0582 23.9161C35.2202 24.4954 36.1709 24.983 36.1709 24.9996C36.1709 25.0162 33.6617 26.282 30.595 27.8125L25.0191 30.5952L19.4431 27.8125C16.3764 26.282 13.8672 25.0163 13.8672 24.9999C13.8672 24.9587 17.9872 22.8981 18.0777 22.8939C18.1176 22.8921 19.6305 23.6289 21.4398 24.5312ZM21.4398 31.4453C24.3231 32.8833 24.7635 33.0863 25.0062 33.0886C25.2537 33.0909 25.6377 32.9148 28.6143 31.4341L31.9455 29.777L34.0582 30.8302C35.2202 31.4095 36.1709 31.8971 36.1709 31.9137C36.1709 31.9303 33.6617 33.1961 30.595 34.7266L25.0191 37.5093L19.4431 34.7266C16.3764 33.1961 13.8672 31.9304 13.8672 31.9139C13.8672 31.8728 17.9872 29.8121 18.0777 29.808C18.1176 29.8062 19.6305 30.543 21.4398 31.4453Z" fill="white"/>
</svg>
