<svg width="195" height="40" viewBox="0 0 195 40" fill="none" xmlns="http://www.w3.org/2000/svg">
<path fill-rule="evenodd" clip-rule="evenodd" d="M21.4481 0.403711C21.8139 1.08699 21.7025 1.93278 21.1149 2.93509C20.8093 3.45586 20.5922 3.90138 20.6321 3.92496C20.672 3.94876 21.0432 4.12135 21.4569 4.30852C22.1263 4.61146 22.2625 4.61382 22.6906 4.32974C23.1253 4.04138 23.172 4.04524 23.172 4.37069C23.172 4.56901 23.0821 4.67556 22.9723 4.60781C22.6054 4.3812 22.4964 4.9189 22.8397 5.26194C23.1482 5.57024 23.2074 5.53101 23.5048 4.82007C24.1247 3.33752 24.141 2.80517 23.5737 2.57812C23.0918 2.38538 23.089 2.3738 23.5213 2.36094C24.3122 2.33757 24.5282 2.8354 24.263 4.07096C24.1337 4.67406 23.9283 5.35306 23.8069 5.57989C23.6833 5.81058 23.6724 5.99218 23.782 5.99218C24.1176 5.99218 25.8044 3.65075 25.8299 3.14992C25.8435 2.88063 26.0166 2.64351 26.2294 2.60256C26.7969 2.49343 26.686 3.02857 25.9222 4.08405L25.2395 5.02739L26.0074 4.4438C29.3851 1.8764 30.896 0.947419 30.896 1.43796C30.896 1.52736 29.2547 2.89286 27.2486 4.47253C24.9756 6.26231 23.6011 7.48802 23.6011 7.72536C23.6011 8.42065 24.5087 8.28107 26.1222 7.33773C27.942 6.27368 28.2177 6.48722 26.4976 7.62824C25.8486 8.05896 25.3176 8.49225 25.3176 8.5913C25.3176 8.69014 25.5564 8.831 25.8484 8.90433C26.2286 8.99973 26.6858 8.8488 27.4608 8.37241C28.7329 7.59008 28.9678 7.53862 28.4083 8.16466C28.0015 8.61982 28.0019 8.62111 28.5359 8.4616C29.2298 8.25406 29.2223 8.25428 29.6623 8.44659C30.0685 8.62432 30.1822 9.20813 29.8106 9.20813C29.6857 9.20813 29.643 9.11165 29.716 8.99373C29.9018 8.69336 28.2576 8.71973 27.5805 9.02825C26.9486 9.31575 26.8877 9.53487 27.3859 9.7259C27.6071 9.8108 27.8508 9.69974 28.0418 9.42724C28.2089 9.18883 28.4535 8.99373 28.5855 8.99373C28.7174 8.99373 28.6166 9.21563 28.3615 9.48706L27.8978 9.98017L28.9659 11.0314C29.8763 11.9273 30.1691 12.089 30.9477 12.1261C31.4504 12.1499 32.1272 12.0703 32.4518 11.949C32.8869 11.7867 33.1278 11.8 33.3688 11.9998C33.5486 12.1488 33.6473 12.319 33.5883 12.378C33.5293 12.4369 33.3297 12.3598 33.145 12.2065C32.6372 11.7854 32.4378 12.1406 32.1016 14.0659C31.6481 16.6614 30.9005 17.8219 29.0637 18.7807C28.012 19.33 27.8933 19.4627 27.8927 20.0888L27.8923 20.7855L29.126 20.7838C30.2434 20.7825 32.3868 20.5255 33.6316 20.2435C33.8972 20.1833 34.1144 19.9809 34.1144 19.7937C34.1144 19.5714 34.2322 19.4985 34.4538 19.5834C34.6405 19.655 34.9301 19.7136 35.0975 19.7136C35.7218 19.7136 35.3721 20.322 34.5615 20.6462C33.5767 21.0398 30.7227 21.4287 28.8172 21.4287C27.6794 21.4287 27.4423 21.4958 27.2387 21.876C27.107 22.1219 27.0312 22.3534 27.0703 22.3905C27.1093 22.4276 28.2158 22.5708 29.5293 22.7085C31.824 22.949 35.1878 22.8022 37.3123 22.3684C37.8127 22.2664 37.998 22.2923 37.9002 22.4506C37.7125 22.7539 35.3412 23.5273 34.1144 23.6853C32.0038 23.9569 31.7543 24.0255 31.7543 24.3327C31.7543 24.7901 30.1532 24.735 28.6752 24.2268C27.4943 23.821 27.4659 23.8205 27.676 24.2127C27.7948 24.4348 27.8858 24.8882 27.8777 25.2201C27.862 25.8783 27.8221 25.8187 27.2426 24.2695C27.0332 23.7097 26.863 23.5727 26.3771 23.5727C26.0443 23.5727 25.7182 23.6598 25.6523 23.7663C25.5864 23.8727 26.2065 24.7652 27.0302 25.7495C27.8538 26.7338 28.5297 27.6113 28.5318 27.6998C28.5451 28.2219 27.7612 27.6477 26.3934 26.1341L24.8331 24.4076L24.4664 25.0085C24.2648 25.3391 23.9292 25.7503 23.7206 25.9225C23.3683 26.2132 23.3926 26.252 24.0614 26.4722C24.8591 26.7346 25.6002 27.8808 25.3556 28.4736C25.247 28.7365 25.1931 28.6775 25.1429 28.2406C25.0247 27.2162 23.6014 26.4553 22.7783 26.9767C22.5631 27.1128 22.6165 27.1977 22.9929 27.3176C23.3713 27.4383 23.41 27.5002 23.151 27.5712C22.8435 27.6555 22.8397 27.7612 23.1128 28.5902C23.3797 29.4007 23.3769 29.6125 23.0907 30.2975C22.7193 31.1853 22.0939 31.5054 20.7306 31.5054H19.8192L19.8063 32.8692C19.79 34.6023 19.2622 36.1966 18.446 36.9781C17.7097 37.683 17.6135 37.5261 18.2417 36.6445C18.9438 35.6593 19.31 34.3376 19.31 32.7881V31.3375L18.5054 31.0176C17.9952 30.8146 17.3076 30.7359 16.6259 30.8022C15.6827 30.8941 15.4836 30.8395 14.9994 30.3554L14.4475 29.8041L13.5865 31.0511C12.7798 32.2191 12.6908 32.5049 12.1795 35.5708C11.8079 37.7981 11.5017 39.0198 11.2213 39.3952C10.5246 40.3276 10.3291 40.1529 10.8591 39.0712C11.3582 38.0522 12.1035 34.4295 11.975 33.6472C11.9246 33.3415 11.497 33.7343 10.2697 35.2129C8.88047 36.887 7.2949 38.2833 7.2949 37.8329C7.2949 37.7619 8.11278 36.8417 9.11218 35.7877C10.1118 34.7338 11.1421 33.4598 11.4017 32.9564C11.8021 32.1805 12.5187 29.7902 12.3511 29.7902C12.3213 29.7902 11.6317 30.5861 10.819 31.559C8.72491 34.0655 6.64179 36.2133 5.96465 36.5647C5.13861 36.9933 4.72023 36.9427 4.72023 36.4144C4.72023 35.9215 5.8018 33.8644 6.0612 33.864C6.3206 33.8635 6.2322 34.57 5.90028 35.1501C5.73164 35.4449 5.59025 35.7631 5.58596 35.857C5.57116 36.194 7.29361 34.6418 8.71762 33.0351C9.51555 32.1349 9.89446 31.6394 9.55975 31.9342L8.95084 32.4702L9.10425 31.827C9.18857 31.4732 9.3482 31.1512 9.45869 31.1115C9.5694 31.0717 9.77044 30.8305 9.9054 30.5755C10.0558 30.2915 9.76594 30.4647 9.15681 31.023C8.17565 31.9222 7.91882 32.0572 7.66736 31.806C7.47341 31.6124 7.73474 31.0766 8.02331 31.0766C8.16256 31.0766 8.74851 30.5976 9.32545 30.0123C10.2094 29.1157 10.3156 28.9255 10.0002 28.8048C9.79447 28.7259 9.51684 28.7705 9.38317 28.9041C9.07314 29.2139 7.82893 29.2182 7.25542 28.9114C6.91642 28.7302 6.63385 28.7577 6.02773 29.0308C4.63333 29.659 3.32819 28.6934 3.46272 27.1328C3.53481 26.2975 3.30566 25.8828 3.08703 26.4525C2.83342 27.1128 3.40457 28.4284 4.29326 29.2306C5.23945 30.0848 5.69238 30.1673 6.7156 29.6725L7.40217 29.3402L6.89239 29.7823C6.16268 30.415 5.50786 30.5189 4.74233 30.1232C3.66676 29.5675 2.92761 28.2446 2.82913 26.6993C2.75382 25.5179 2.80553 25.3014 3.3033 24.7103C3.61054 24.3454 3.862 23.9076 3.862 23.7376C3.862 23.5673 3.37282 22.9263 2.77485 22.3129C1.67697 21.1867 1.07278 20.1074 1.07278 19.2723C1.07278 19.0084 1.51219 18.3942 2.11788 17.8106C2.96473 16.995 3.2089 16.59 3.40522 15.6754C3.68049 14.3931 3.72748 12.6378 3.48653 12.64C3.21061 12.6423 2.15393 13.4032 1.82716 13.8348C1.36822 14.4411 1.43044 14.6615 2.1359 14.9276C2.54334 15.0813 2.82141 15.3718 2.9141 15.7406C3.13874 16.6348 2.76412 16.8199 1.6156 16.3814C0.911647 16.1128 0.702026 15.9466 0.900061 15.8143C1.07342 15.6983 0.955416 15.679 0.590028 15.7639C0.0879671 15.8806 0 15.8328 0 15.4436C0 15.1529 0.195673 14.9119 0.536388 14.7824C0.853501 14.6619 1.07278 14.409 1.07278 14.1637C1.07278 13.6985 2.0975 12.7566 3.14904 12.2556C3.53095 12.0738 3.88539 11.8201 3.9371 11.6921C3.98881 11.5641 4.23469 10.9488 4.48336 10.3251L4.93543 9.19076L3.86222 8.5242C2.25026 7.52297 2.45302 7.15292 4.23748 7.83921C6.29764 8.63119 6.25924 8.63011 7.0267 7.92518C7.41011 7.57292 7.72401 7.24725 7.72401 7.20137C7.72401 7.15571 6.93959 6.60363 5.98074 5.97459C5.02189 5.34555 4.34518 4.79498 4.47692 4.75103C4.88586 4.61489 6.2734 5.14123 7.57704 5.927C8.2634 6.34057 8.86952 6.63408 8.92445 6.5792C8.97937 6.52452 8.39943 5.9598 7.63583 5.32476C6.45169 4.33982 5.90887 3.63381 6.33562 3.63381C6.69393 3.63381 8.98216 4.96093 9.40462 5.41373L9.90497 5.95036L11.3858 5.11186C13.5194 3.90373 14.8666 3.60122 17.7938 3.67262L20.247 3.73244L20.7413 2.66474C21.3455 1.35949 21.3507 1.22678 20.8177 0.744813C20.3017 0.278071 19.398 0.409068 18.2619 1.11508L17.4863 1.59704L18.0763 1.66479C18.6619 1.73211 18.7865 1.99968 18.5361 2.65145C18.4033 2.99727 17.6918 3.09717 17.0671 2.85748C16.7487 2.73549 16.7495 2.67803 17.0774 2.16069C17.2739 1.85067 17.3063 1.71775 17.1494 1.86504C16.668 2.3172 16.4283 2.16176 16.863 1.67937C18.1471 0.254059 20.9503 -0.525698 21.4481 0.403711ZM16.2635 5.19676C17.3694 5.34791 17.7998 5.49006 17.727 5.68002C17.6601 5.85432 17.9768 6.03527 18.6277 6.19457C19.18 6.32985 19.825 6.49579 20.061 6.56333C20.4171 6.66538 20.3847 6.57448 19.8707 6.02884C19.3707 5.49821 19.1223 5.39079 18.5833 5.47141C18.0894 5.54559 18.0242 5.52393 18.3329 5.38908C18.7234 5.21842 18.7166 5.19741 18.2257 5.06641C17.9371 4.98923 17.025 4.93863 16.199 4.95428L14.6971 4.98237L16.2635 5.19676ZM20.3124 5.33633C20.6866 5.56445 21.2314 6.10173 21.5229 6.53053L22.0529 7.30986L22.4037 6.81181C22.7135 6.37208 22.7163 6.30563 22.4269 6.24452C22.2466 6.20636 22.0993 6.09016 22.0993 5.98639C22.0993 5.78764 20.2852 4.91955 19.8728 4.92105C19.7402 4.92148 19.938 5.10843 20.3124 5.33633ZM11.4251 5.91971C11.0625 6.06593 11.0842 6.42097 11.4558 6.42097C11.6201 6.42097 11.8102 6.27625 11.8782 6.09937C12.0044 5.7707 11.8988 5.72868 11.4251 5.91971ZM13.7728 5.93064C13.2081 6.03849 13.207 6.5689 13.7708 6.92373C14.0448 7.09632 14.3943 7.02814 15.223 6.64029C15.9619 6.29447 16.2262 6.07386 16.0419 5.95701C15.7606 5.77842 14.6383 5.76556 13.7728 5.93064ZM30.4601 7.11776C30.4521 7.42884 29.9509 8.13614 29.7385 8.13614C29.6587 8.13614 29.7035 7.93097 29.8378 7.68012C30.0284 7.32444 30.0183 7.18358 29.7917 7.04015C29.5804 6.90636 29.6325 6.85534 29.9842 6.85298C30.2498 6.85126 30.4639 6.97046 30.4601 7.11776ZM16.4697 7.64453C16.7366 7.69577 17.1228 7.69384 17.328 7.64024C17.5331 7.58664 17.3147 7.54462 16.8426 7.54698C16.3706 7.54934 16.2028 7.59329 16.4697 7.64453ZM12.8903 8.04673C12.9006 8.29651 12.9514 8.34732 13.0199 8.17645C13.0819 8.02165 13.0742 7.83663 13.0029 7.76545C12.9317 7.69427 12.8811 7.82076 12.8903 8.04673ZM9.86957 8.99373C9.86957 9.34748 9.95517 9.63692 10.0599 9.63692C10.1644 9.63692 10.2925 9.34748 10.3444 8.99373C10.409 8.55486 10.3485 8.35054 10.1543 8.35054C9.98092 8.35054 9.86957 8.60224 9.86957 8.99373ZM15.7162 8.48775C15.5688 8.54993 15.448 8.73731 15.448 8.90433C15.448 9.12901 15.7505 9.20813 16.6105 9.20813C17.2499 9.20813 17.9343 9.26987 18.1313 9.34555C18.414 9.45382 18.4743 9.37471 18.417 8.97036C18.3514 8.50684 18.2314 8.45367 17.1645 8.41636C16.5154 8.39342 15.8638 8.42558 15.7162 8.48775ZM19.6769 8.77933C19.7387 9.01517 19.8595 9.20813 19.9455 9.20813C20.0314 9.20813 20.2766 9.01517 20.4901 8.77933C20.8705 8.35933 20.8649 8.35054 20.2217 8.35054C19.6705 8.35054 19.5827 8.41957 19.6769 8.77933ZM7.19985 9.25594C6.81837 9.79986 6.75293 11.0427 7.09472 11.2537C7.42406 11.4571 7.46804 11.3637 7.68131 10.0044C7.88578 8.70236 7.7431 8.48068 7.19985 9.25594ZM8.36596 9.75033C8.21641 10.2842 8.14733 10.7745 8.21234 10.8397C8.45007 11.0772 9.25958 10.4626 9.13536 10.139C9.06713 9.96152 9.01134 9.58289 9.01134 9.29774C9.01134 8.45688 8.65926 8.70365 8.36596 9.75033ZM11.1569 8.99373C11.1569 9.11165 11.4225 9.20127 11.7469 9.19312C12.2698 9.17961 12.288 9.1571 11.9078 8.99373C11.3219 8.74203 11.1569 8.74203 11.1569 8.99373ZM24.3521 9.50871C24.7061 9.6753 25.0361 9.77242 25.0852 9.72439C25.2361 9.57689 25.0232 9.46304 24.3517 9.33161L23.7084 9.20577L24.3521 9.50871ZM11.3178 9.77885C11.4654 9.83845 11.7068 9.83845 11.8542 9.77885C12.0018 9.71946 11.881 9.67079 11.586 9.67079C11.291 9.67079 11.1704 9.71946 11.3178 9.77885ZM81.7458 11.1208C81.7458 12.8194 82.0223 12.6331 78.8493 13.0731C77.9052 13.2038 76.7904 13.3994 76.3716 13.5074C75.4633 13.7415 74.5148 14.6697 74.2537 15.5798L74.0647 16.2378L75.2769 15.5961C76.3806 15.0118 76.6295 14.9632 78.0578 15.0515C79.3545 15.1317 79.7819 15.2578 80.5226 15.7779C82.3491 17.0606 83.2438 20.0718 82.5287 22.5299C81.7498 25.2066 79.7455 26.683 76.9247 26.657C72.4879 26.6163 70.2409 23.0485 70.9781 17.2154C71.5644 12.5774 73.0713 11.1443 78.3654 10.1901C79.9295 9.90813 81.3302 9.66844 81.4776 9.65729C81.6683 9.64271 81.7458 10.0657 81.7458 11.1208ZM5.20062 10.9696C4.94787 11.4666 4.76056 11.8872 4.78438 11.9042C4.80798 11.9211 5.10064 12.0006 5.4347 12.0806C5.97516 12.2103 6.02666 12.1784 5.90307 11.7897C5.82669 11.5493 5.7561 11.0633 5.74602 10.7093C5.73594 10.3554 5.71233 10.0657 5.69388 10.0657C5.67521 10.0657 5.45315 10.4724 5.20062 10.9696ZM26.0685 10.2801C26.1415 10.398 26.2436 10.4945 26.2957 10.4945C26.3479 10.4945 26.3904 10.398 26.3904 10.2801C26.3904 10.1622 26.288 10.0657 26.1632 10.0657C26.0383 10.0657 25.9956 10.1622 26.0685 10.2801ZM112.213 10.9233C112.213 11.7262 112.252 11.7809 112.834 11.7809C114.16 11.7809 116.219 12.617 117.312 13.5992C118.769 14.9081 119.374 16.3227 119.377 18.4272C119.381 21.1704 118.204 23.0672 115.777 24.2303C115.082 24.5632 113.996 24.9003 113.363 24.9794L112.213 25.1228V25.9675V26.8122L111.194 26.7468C110.191 26.6825 110.173 26.6686 110.109 25.9051C110.048 25.1659 110 25.1226 109.12 25.0021C105.181 24.4625 102.825 21.7486 103.035 17.9902C103.221 14.6534 105.479 12.3338 108.995 11.8677C110.029 11.7307 110.067 11.7011 110.067 11.0386C110.067 10.1487 110.171 10.0657 111.283 10.0657H112.213V10.9233ZM27.2499 10.6553C27.2507 10.7439 27.5644 10.9936 27.9472 11.2108L28.6432 11.6053L28.1231 11.05C27.6114 10.5037 27.2473 10.3391 27.2499 10.6553ZM48.1628 13.1734L49.8396 15.8525L51.0488 13.9774C51.7142 12.9461 52.4804 11.7408 52.7516 11.2985L53.2448 10.4945H55.1814C56.8708 10.4945 57.1008 10.5385 56.9856 10.8386C56.9129 11.0279 55.7922 12.8083 54.4953 14.7949C53.1983 16.7815 52.1371 18.4694 52.1371 18.5457C52.1371 18.6223 53.2474 20.3681 54.6045 22.4255C55.9615 24.483 57.0718 26.21 57.0718 26.2632C57.0718 26.3163 56.1787 26.3588 55.0872 26.3573L53.1026 26.3547L51.4511 23.7603L49.7997 21.1659L48.1255 23.7616L46.4513 26.3571L44.454 26.3586C42.915 26.3596 42.4928 26.2983 42.614 26.0919C42.7005 25.9446 43.8554 24.1681 45.1805 22.1444L47.59 18.4647L45.0359 14.5719C43.6312 12.4309 42.4821 10.6375 42.4821 10.5869C42.4821 10.5361 43.383 10.4945 44.4841 10.4945H46.4863L48.1628 13.1734ZM8.88776 11.3701C8.48418 11.8156 8.48461 11.816 9.06906 11.55C9.39132 11.4033 9.65501 11.2022 9.65501 11.1032C9.65501 10.7876 9.30507 10.9092 8.88776 11.3701ZM25.4725 11.7937C25.9709 12.2699 26.5468 12.9442 26.7525 13.2922C27.1394 13.9465 27.3522 14.0631 27.5565 13.733C27.6219 13.6273 27.5309 13.4858 27.3546 13.418C27.1782 13.3505 27.034 13.0658 27.034 12.7856C27.034 12.2206 26.6279 11.7927 25.5965 11.2708C24.5235 10.728 24.4928 10.8575 25.4725 11.7937ZM9.16604 12.2984C8.81395 12.5651 8.81224 12.5986 9.14308 12.7253C9.34047 12.801 9.51533 12.8366 9.53185 12.8044C9.54838 12.772 9.69127 12.5767 9.84918 12.3705C10.0903 12.056 10.0891 11.9964 9.8421 12.0021C9.68033 12.0058 9.37587 12.1391 9.16604 12.2984ZM4.4295 12.6798C4.24606 13.3644 4.26022 13.8702 4.45525 13.596C4.54193 13.474 4.89144 13.1603 5.23194 12.8992C5.63187 12.5922 5.73293 12.4241 5.51773 12.4241C5.33429 12.4241 5.04442 12.3705 4.87321 12.3047C4.67303 12.2279 4.5149 12.3617 4.4295 12.6798ZM28.1911 12.5489C28.2628 12.7354 28.3214 12.9283 28.3214 12.9776C28.3214 13.027 28.3973 13.0673 28.4902 13.0673C28.5831 13.0673 28.6737 12.8743 28.6915 12.6385C28.711 12.3808 28.5915 12.2097 28.3924 12.2097C28.1783 12.2097 28.107 12.3297 28.1911 12.5489ZM24.6801 14.0801C24.6741 15.5869 24.6915 15.6381 25.3176 15.9616L25.9613 16.2941V15.1128C25.9613 14.103 25.8688 13.8301 25.3238 13.2315L24.6866 12.5313L24.6801 14.0801ZM30.3596 13.2817C30.7461 14.0282 31.0067 14.0904 31.3176 13.5102C31.6869 12.8207 31.5751 12.6385 30.7832 12.6385H30.0269L30.3596 13.2817ZM23.3941 13.3996C23.3984 13.6296 23.549 14.0589 23.729 14.3536L24.0562 14.8896L23.932 14.1459C23.7906 13.2999 23.3821 12.733 23.3941 13.3996ZM31.4541 13.7641C31.2835 14.0295 31.0756 14.7158 30.9919 15.2893C30.8079 16.5527 29.9726 17.5919 28.7477 18.0816C28.2772 18.2698 27.8923 18.5243 27.8923 18.6474C27.8923 18.7929 28.0607 18.7816 28.375 18.6148C30.3536 17.5638 31.0426 16.6899 31.6079 14.5144C31.9568 13.1713 31.9274 13.0278 31.4541 13.7641ZM29.126 14.0256C28.9195 14.3093 28.747 14.9094 28.743 15.3587C28.7387 15.8083 28.5973 16.4172 28.4286 16.712C27.9738 17.507 28.0377 17.6163 28.7443 17.2512C29.5847 16.8169 30.2524 16.0836 30.2524 15.5946C30.2524 15.223 30.2223 15.2211 29.7093 15.5568C29.4107 15.7526 29.112 15.8583 29.0457 15.792C28.9794 15.7258 29.2238 15.5174 29.5887 15.3287C29.9537 15.1401 30.2524 14.9353 30.2524 14.8736C30.2524 14.7346 29.616 13.4935 29.5495 13.5027C29.5231 13.5066 29.3324 13.7418 29.126 14.0256ZM108.564 13.9107C106.199 14.6296 104.944 16.5426 105.202 19.0359C105.415 21.1054 106.977 22.6489 109.263 23.0502L110.067 23.1917V18.451V13.7105L109.584 13.7289C109.319 13.739 108.86 13.8209 108.564 13.9107ZM112.213 18.4546V23.1988L113.091 23.0584C114.815 22.7829 116.425 21.578 116.971 20.1544C117.265 19.3873 117.252 17.5711 116.946 16.644C116.479 15.231 114.263 13.7105 112.671 13.7105C112.217 13.7105 112.213 13.7542 112.213 18.4546ZM5.6765 14.5861C5.28065 15.351 5.15277 16.9504 5.47825 17.0664C5.60012 17.1099 5.80631 16.638 5.93633 16.0176C6.06635 15.3971 6.24336 14.6727 6.32982 14.4072C6.56712 13.6777 6.07708 13.8119 5.6765 14.5861ZM6.79584 15.0749C6.11055 17.2476 6.44719 17.9034 7.24448 15.9485C7.66157 14.9257 7.68968 14.6988 7.44273 14.3466C7.17839 13.9692 7.12604 14.028 6.79584 15.0749ZM65.8903 14.8152C67.0129 15.1958 67.7683 15.8103 68.2337 16.7214C68.6154 17.4695 68.6579 17.9924 68.6579 21.9562V26.3599H67.156C65.6833 26.3599 65.6541 26.3491 65.6541 25.8048V25.2497L65.0229 25.7803C63.0455 27.4432 59.3689 26.7286 58.4373 24.5008C57.7994 22.9754 58.2549 20.9798 59.4322 20.1424C60.273 19.544 62.2834 19.0704 63.9827 19.0704C65.2681 19.0704 65.4395 19.0228 65.4395 18.6654C65.4395 17.9624 64.7403 17.3357 63.8177 17.212C63.0979 17.1155 62.8387 17.1905 62.2871 17.6543C61.7078 18.1414 61.4277 18.2128 60.0984 18.2128C59.2599 18.2128 58.5737 18.1615 58.5737 18.0987C58.5737 17.7975 59.2753 16.3593 59.601 15.9927C59.8031 15.7652 60.4511 15.3527 61.0411 15.0757C62.2519 14.5074 64.6085 14.3809 65.8903 14.8152ZM93.5013 14.9771C95.366 15.9357 96.3946 17.8286 96.4242 20.3568C96.448 22.4025 96.0526 23.7537 95.107 24.8576C93.4363 26.808 90.6204 27.2906 88.792 25.9399L88.1824 25.4894V28.0686V30.6478H86.466H84.7495V22.7151V14.7824H86.466C88.0224 14.7824 88.1824 14.8212 88.1824 15.1988C88.1824 15.5946 88.2275 15.5894 89.0943 15.0942C90.2714 14.4218 92.315 14.3676 93.5013 14.9771ZM129.929 15.381C131.015 15.9374 131.612 16.5881 132.15 17.8035C133.402 20.6335 132.662 24.2455 130.53 25.7055C128.785 26.8999 126.219 26.9471 124.729 25.8119L124.013 25.266V27.9569V30.6478H123.048H122.082V22.8223V14.9968H123.048C123.989 14.9968 124.013 15.0138 124.013 15.6773V16.358L124.529 15.8735C125.744 14.7333 128.223 14.5072 129.929 15.381ZM166.992 15.0931C168.018 15.4584 168.574 15.9563 169.093 16.9714C169.451 17.6738 169.499 18.2705 169.499 22.0634V26.3599H168.534C167.711 26.3599 167.568 26.2964 167.568 25.9311C167.568 25.4716 167.255 25.3558 167.024 25.73C166.621 26.3813 164.482 26.8305 163.103 26.5532C161.016 26.1337 159.831 24.4822 160.171 22.4692C160.495 20.5553 161.997 19.7114 165.369 19.5489C167.791 19.4323 167.815 19.4132 167.33 18.0239C166.77 16.4183 163.722 16.2097 162.739 17.7098C162.474 18.1135 162.219 18.2128 161.448 18.2128C160.92 18.2128 160.488 18.1615 160.488 18.0987C160.488 17.6929 161.177 16.5124 161.701 16.0204C162.917 14.8796 165.247 14.4711 166.992 15.0931ZM192.697 15.4531C193.674 15.9927 194.707 17.2894 194.938 18.2664C195.076 18.8483 195.064 18.856 194.035 18.851C193.083 18.8468 192.964 18.7882 192.662 18.1748C191.933 16.6951 189.463 16.2502 188.237 17.3779C186.863 18.6424 186.466 21.164 187.361 22.9377C188.485 25.165 191.47 25.3934 192.638 23.3414C192.953 22.7876 193.109 22.7177 194.035 22.7164C195.065 22.7151 195.076 22.7226 194.934 23.3047C194.479 25.1665 192.35 26.6465 190.128 26.6448C186.758 26.6422 184.484 23.8591 184.798 20.1209C185.007 17.6251 186.249 15.8499 188.326 15.0751C189.485 14.6431 191.554 14.8219 192.697 15.4531ZM137.365 18.9889L137.423 22.9808L140.193 18.9784L142.964 14.9763L143.948 15.0401L144.932 15.104L144.99 20.7319L145.047 26.3599H143.975H142.904L142.845 22.4471L142.787 18.5344L140.105 22.4396L137.423 26.3451L136.297 26.3524L135.17 26.3599V20.8214C135.17 17.775 135.235 15.2183 135.313 15.1398C135.392 15.0612 135.872 14.9968 136.381 14.9968H137.306L137.365 18.9889ZM157.649 20.7319L157.706 26.3599H156.629H155.553V21.6431V16.9264H153.548H151.542L151.284 20.0326C151.002 23.4284 150.633 25.0141 149.991 25.5947C149.476 26.0606 148.135 26.5522 147.346 26.5648C146.789 26.5738 146.756 26.5213 146.756 25.6095C146.756 24.7485 146.809 24.6447 147.245 24.6447C148.003 24.6447 148.655 24.0637 148.878 23.1896C148.99 22.7518 149.194 20.8499 149.331 18.9632C149.468 17.0765 149.618 15.41 149.665 15.2599C149.731 15.0494 150.644 15.0005 153.671 15.0455L157.591 15.104L157.649 20.7319ZM174.648 17.248V19.4992H177.323H179.997L180.058 17.3016L180.12 15.104L181.139 15.0386L182.158 14.9733V20.6666V26.3599H181.085H180.012V23.8943V21.4287H177.33H174.648V23.8943V26.3599H173.683H172.717V20.6783V14.9968H173.683H174.648V17.248ZM1.85569 15.5388C1.92478 15.7189 2.16315 15.9635 2.38543 16.0823C2.69739 16.2491 2.78923 16.2251 2.78923 15.9766C2.78923 15.7998 2.60256 15.5553 2.37427 15.4331C1.81149 15.1321 1.70765 15.1533 1.85569 15.5388ZM27.0759 16.6048C27.0802 16.9586 27.1282 17.0773 27.1827 16.8687C27.2372 16.6601 27.2336 16.3707 27.1748 16.2255C27.116 16.0804 27.0716 16.2511 27.0759 16.6048ZM25.103 17.1475C25.103 17.6354 25.4311 17.713 25.6029 17.2658C25.6671 17.0986 25.5808 16.9086 25.4113 16.8437C25.2077 16.7656 25.103 16.8687 25.103 17.1475ZM125.708 17.1961C125.307 17.4624 124.755 18.1137 124.48 18.6433C124.065 19.4469 123.997 19.8431 124.075 21.0362C124.231 23.4411 125.401 24.7277 127.429 24.7266C129.401 24.7257 130.54 23.2492 130.551 20.6783C130.556 19.5423 130.45 18.9953 130.117 18.4278C129.139 16.7652 127.181 16.218 125.708 17.1961ZM24.2618 17.2658C24.2721 17.5156 24.3229 17.5664 24.3914 17.3955C24.4534 17.2407 24.4456 17.0557 24.3744 16.9845C24.3032 16.9133 24.2525 17.0398 24.2618 17.2658ZM89.2803 17.9193C87.9127 18.8763 87.8076 21.7199 89.0894 23.0871C90.0832 24.1473 91.8992 23.818 92.6077 22.4491C93.3395 21.0349 92.9711 18.5878 91.923 17.9017C91.2613 17.4684 89.9115 17.4774 89.2803 17.9193ZM75.4743 18.2055C74.6781 18.8313 74.3856 19.7391 74.4946 21.2456C74.5781 22.3989 74.6761 22.6411 75.2748 23.1759C76.6069 24.3651 78.5866 23.7346 79.1823 21.9309C79.4807 21.0276 79.3191 19.4955 78.8501 18.7803C78.1781 17.7555 76.4263 17.4573 75.4743 18.2055ZM3.9725 19.124C4.1523 20.2294 4.35098 20.4798 4.70757 20.0504C4.92856 19.7843 4.89273 19.5888 4.50932 18.9692C4.25207 18.5533 3.99267 18.2128 3.93302 18.2128C3.87316 18.2128 3.89097 18.6229 3.9725 19.124ZM5.14934 18.3599C5.14934 18.4699 5.29116 18.7468 5.46431 18.9758C5.72907 19.3255 5.78035 19.3362 5.78614 19.0429C5.79 18.8511 5.64818 18.574 5.47117 18.4272C5.29416 18.2803 5.14934 18.2501 5.14934 18.3599ZM2.16251 18.981C2.1728 19.2307 2.22366 19.2816 2.2921 19.1107C2.35411 18.9559 2.34638 18.7709 2.27515 18.6997C2.20392 18.6285 2.15328 18.755 2.16251 18.981ZM3.1574 19.0704C3.07609 19.3652 3.01515 19.8958 3.0218 20.2496C3.03167 20.772 3.06471 20.8145 3.19731 20.4755C3.32883 20.1396 3.40865 20.2487 3.6069 21.0351C3.74228 21.5724 3.99288 22.1281 4.16388 22.2698C4.39389 22.4606 4.36213 22.2319 4.04116 21.3884C3.80257 20.7622 3.53953 19.8636 3.45649 19.392C3.31939 18.6148 3.2915 18.5845 3.1574 19.0704ZM25.8701 19.3973C25.341 20.2045 25.4313 20.6112 26.1222 20.5317C26.6081 20.476 26.7238 20.3458 26.7774 19.7946C26.8624 18.9212 26.3342 18.6898 25.8701 19.3973ZM5.3699 20.8769C5.05107 21.715 5.11415 21.8468 5.49649 21.1419C5.678 20.807 5.77348 20.4802 5.70847 20.4153C5.64368 20.3503 5.49113 20.5581 5.3699 20.8769ZM5.50958 21.6307C5.24482 22.1609 5.21499 22.4368 5.38707 22.7584C5.61192 23.178 5.62265 23.1771 6.13308 22.698C6.75529 22.114 6.76216 22.0419 6.25559 21.417L5.85995 20.9288L5.50958 21.6307ZM163.17 21.6877C161.369 22.7196 162.194 24.8597 164.393 24.8587C165.923 24.858 167.568 23.398 167.568 22.0402V21.4287L165.583 21.4352C164.492 21.4388 163.406 21.5524 163.17 21.6877ZM25.7467 21.9647C25.7467 22.1416 25.8329 22.2863 25.9383 22.2863C26.0436 22.2863 26.1855 22.1416 26.2535 21.9647C26.3286 21.7688 26.2537 21.6431 26.0619 21.6431C25.8885 21.6431 25.7467 21.7879 25.7467 21.9647ZM61.9326 22.0353C60.7907 23.2959 62.6385 24.5729 64.3356 23.696C64.9158 23.3963 65.4395 22.5702 65.4395 21.9547C65.4395 21.4474 62.4018 21.5171 61.9326 22.0353ZM23.9296 23.2067C23.8378 23.4181 23.823 23.6514 23.8964 23.7249C24.1144 23.9425 24.2901 23.6368 24.1897 23.2142C24.1008 22.8397 24.0893 22.8395 23.9296 23.2067ZM6.75851 23.3583C6.68556 23.4762 6.77653 23.5727 6.9604 23.5727C7.14428 23.5727 7.2949 23.4762 7.2949 23.3583C7.2949 23.2404 7.20414 23.1439 7.093 23.1439C6.98186 23.1439 6.83146 23.2404 6.75851 23.3583ZM9.53894 24.0159C9.28726 24.4226 9.65415 24.5229 10.0279 24.1494C10.3624 23.8154 10.363 23.7871 10.0354 23.7871C9.84017 23.7871 9.61661 23.89 9.53894 24.0159ZM13.6157 24.1291C14.0708 24.4614 14.6827 24.5394 14.4984 24.2414C14.434 24.1376 14.1165 24.0021 13.7925 23.9402C13.2417 23.8349 13.2304 23.8473 13.6157 24.1291ZM10.2266 24.3915C9.91505 24.7354 9.90454 24.8355 10.1575 25.0454C10.5647 25.3831 11.0597 24.8162 10.7853 24.3263C10.6147 24.0214 10.5553 24.0285 10.2266 24.3915ZM3.87016 24.7903C3.46271 25.308 3.4507 25.3974 3.74872 25.6954C3.93088 25.8773 4.29154 26.0288 4.5503 26.0323C4.85861 26.0361 5.06159 26.2057 5.13883 26.5232C5.29438 27.1634 6.61261 27.9964 6.77996 27.5605C6.9117 27.2177 4.96461 25.1558 4.58849 25.2399C4.44216 25.2727 4.3896 25.0844 4.45268 24.7547C4.58463 24.0647 4.43401 24.074 3.87016 24.7903ZM11.6697 25.1983C11.4916 25.9071 11.7566 26.1457 12.14 25.6217C12.5256 25.0947 12.5228 24.935 12.1245 24.7823C11.9093 24.6998 11.7609 24.8357 11.6697 25.1983ZM5.98847 25.3599C6.15496 25.567 6.58944 25.9454 6.95397 26.2008C7.44981 26.5479 7.54056 26.5698 7.31399 26.2878C7.1475 26.0807 6.71302 25.7023 6.34849 25.447C5.85265 25.0999 5.7619 25.078 5.98847 25.3599ZM18.5054 25.3415C18.5546 25.489 18.8202 25.6095 19.0955 25.6095C19.3707 25.6095 19.6364 25.489 19.6855 25.3415C19.7445 25.1646 19.5437 25.0735 19.0955 25.0735C18.6473 25.0735 18.4464 25.1646 18.5054 25.3415ZM12.7573 25.731C12.6794 25.8567 12.6618 26.0057 12.718 26.0618C12.7742 26.118 12.8774 26.0151 12.9474 25.8331C13.0924 25.4553 12.9688 25.3889 12.7573 25.731ZM13.9536 25.9169C13.6503 26.4836 13.6717 26.5743 14.109 26.5743C14.3167 26.5743 14.6018 26.3899 14.7426 26.1645C14.9507 25.8316 14.9369 25.731 14.6694 25.6286C14.2083 25.4517 14.2014 25.4545 13.9536 25.9169ZM22.3181 25.8187C22.1488 26.0224 22.1325 26.1455 22.275 26.1455C22.5342 26.1455 22.8365 25.7388 22.6878 25.59C22.6337 25.5362 22.4674 25.6391 22.3181 25.8187ZM8.31039 26.1721C8.45607 26.3187 8.62922 26.3845 8.69509 26.3185C8.76117 26.2525 8.64209 26.1326 8.43054 26.052C8.1248 25.9358 8.10013 25.9602 8.31039 26.1721ZM15.1665 26.0696C14.8865 26.3491 15.0202 26.5743 15.4658 26.5743C15.7156 26.5743 15.8754 26.4619 15.828 26.3198C15.7235 26.0063 15.3652 25.8708 15.1665 26.0696ZM3.94504 26.6673C3.76932 27.1248 4.25314 28.2541 4.73546 28.512C5.30768 28.8179 6.13329 28.762 6.43667 28.3966C6.65359 28.1353 6.64415 28.075 6.38582 28.075C6.21096 28.075 5.62008 27.681 5.07253 27.1994C4.26151 26.4861 4.05253 26.3875 3.94504 26.6673ZM9.15896 26.4984C8.87896 26.7779 9.01263 27.0031 9.45826 27.0031C9.708 27.0031 9.86785 26.8907 9.82043 26.7486C9.71594 26.4351 9.35764 26.2996 9.15896 26.4984ZM17.5035 27.077C17.0409 27.2155 16.6281 27.4319 16.586 27.5577C16.4944 27.8328 17.4277 28.2894 18.081 28.2894C18.5026 28.2894 21.5352 27.2089 21.4032 27.1055C21.137 26.8971 18.1772 26.8755 17.5035 27.077ZM7.12003 27.6625C6.93852 27.9528 6.95998 28.0652 7.2153 28.1632C7.71543 28.355 7.81412 28.3233 8.08918 27.8834C8.30803 27.5333 8.27477 27.464 7.84845 27.3828C7.53305 27.3225 7.26915 27.4239 7.12003 27.6625ZM20.7188 27.9916C19.9005 28.3861 19.1401 28.739 19.0287 28.7761C18.6685 28.8962 19.6949 30.5861 20.2122 30.7246C21.0348 30.9447 22.4269 30.8778 22.7 30.6049C22.8416 30.4634 22.9568 30.0535 22.9562 29.6937C22.9549 28.9378 22.5839 27.4878 22.3595 27.3609C22.2754 27.3133 21.5371 27.5971 20.7188 27.9916ZM8.40673 28.1822C8.17672 28.6865 8.19882 28.7182 8.78113 28.7182C9.36407 28.7182 9.38575 28.6871 9.15209 28.1839C8.84034 27.512 8.71247 27.5118 8.40673 28.1822ZM10.7814 27.7882C10.634 27.8478 10.5132 27.9848 10.5132 28.0928C10.5132 28.4039 11.0777 28.3216 11.3715 27.9678C11.5869 27.7084 11.5817 27.6495 11.344 27.6632C11.1822 27.6724 10.929 27.7288 10.7814 27.7882ZM14.433 27.7948C14.6417 27.8493 14.9314 27.8456 15.0766 27.7869C15.2219 27.7281 15.0511 27.6838 14.6971 27.6881C14.3431 27.6923 14.2242 27.7404 14.433 27.7948ZM11.7894 28.4101C11.5345 28.7169 11.5577 28.7504 11.9802 28.6852C12.2447 28.6445 12.4646 28.5169 12.4689 28.402C12.482 28.0412 12.0919 28.0459 11.7894 28.4101ZM13.4634 29.1818C12.9673 29.3629 12.8733 29.5214 12.8733 30.1774C12.8733 30.8978 12.8954 30.9252 13.1624 30.5348C13.7813 29.6288 14.2066 28.9335 14.1317 28.9496C14.0886 28.9588 13.7878 29.0634 13.4634 29.1818ZM16.5208 29.1241C16.5208 29.2293 16.6656 29.3711 16.8426 29.439C17.0387 29.5141 17.1645 29.4392 17.1645 29.2476C17.1645 29.0743 17.0196 28.9326 16.8426 28.9326C16.6656 28.9326 16.5208 29.0188 16.5208 29.1241ZM17.9055 29.5068C17.913 29.9482 18.0519 30.1176 18.5054 30.2387C19.2111 30.4272 19.2454 30.2529 18.6507 29.4976C18.0868 28.7813 17.8929 28.7836 17.9055 29.5068ZM10.6085 30.3133C10.0951 31.4209 10.2221 31.3986 11.1593 30.216C11.7345 29.4905 11.7772 29.3614 11.4431 29.3616C11.1869 29.3616 10.8958 29.6937 10.6085 30.3133Z" fill="white"/>
</svg>
