<svg width="154" height="38" viewBox="0 0 154 38" fill="none" xmlns="http://www.w3.org/2000/svg">
<g clip-path="url(#clip0_6_332)">
<path d="M18.9844 0C15.2296 0 11.5592 1.11385 8.4372 3.2007C5.31522 5.28755 2.88194 8.25366 1.44505 11.724C0.00816466 15.1943 -0.367791 19.0129 0.364728 22.6969C1.09725 26.381 2.90534 29.765 5.56036 32.4211C8.21538 35.0771 11.5981 36.8859 15.2807 37.6187C18.9633 38.3515 22.7805 37.9754 26.2494 36.538C29.7184 35.1005 32.6833 32.6663 34.7694 29.5431C36.8554 26.4199 37.9688 22.748 37.9688 18.9918C37.9682 13.9551 35.9679 9.12478 32.4077 5.56326C28.8476 2.00174 24.0192 0.000619946 18.9844 0V0ZM18.9844 33.3801C16.1398 33.3801 13.359 32.5362 10.9938 30.9552C8.6286 29.3742 6.78514 27.1271 5.69655 24.498C4.60797 21.8688 4.32314 18.9759 4.8781 16.1848C5.43306 13.3938 6.80287 10.83 8.81432 8.8178C10.8258 6.80557 13.3885 5.43522 16.1785 4.88005C18.9684 4.32487 21.8603 4.60981 24.4884 5.69882C27.1165 6.78783 29.3627 8.63201 30.9431 10.9981C32.5235 13.3643 33.367 16.1461 33.367 18.9918C33.3633 22.8067 31.8468 26.4642 29.1504 29.1617C26.4539 31.8592 22.7978 33.3763 18.9844 33.3801Z" fill="white"/>
<path d="M16.6824 21.7675C17.3149 22.3352 18.1347 22.6492 18.9845 22.6492C19.8342 22.6492 20.654 22.3352 21.2866 21.7675V16.2498C20.6548 15.6807 19.8347 15.3657 18.9845 15.3657C18.1343 15.3657 17.3142 15.6807 16.6824 16.2498V21.7675ZM18.9845 9.22635C17.7011 9.22627 16.4303 9.47941 15.2449 9.97127C14.0594 10.4631 12.9826 11.1841 12.076 12.0928L15.3246 15.3473C16.2949 14.3766 17.611 13.8313 18.9833 13.8313C20.3556 13.8313 21.6717 14.3766 22.6421 15.3473L25.8954 12.0928C24.9884 11.1833 23.9108 10.4619 22.7244 9.97001C21.5381 9.47812 20.2663 9.2254 18.9821 9.22635H18.9845ZM22.6468 22.6794C22.1664 23.1603 21.5961 23.5418 20.9683 23.8021C20.3405 24.0624 19.6676 24.1964 18.988 24.1964C18.3084 24.1964 17.6355 24.0624 17.0077 23.8021C16.3799 23.5418 15.8096 23.1603 15.3292 22.6794L12.0806 25.9246C12.9879 26.833 14.0652 27.5536 15.251 28.0453C16.4368 28.5369 17.7079 28.79 18.9915 28.79C20.2751 28.79 21.5462 28.5369 22.732 28.0453C23.9178 27.5536 24.9951 26.833 25.9024 25.9246L22.6468 22.6794ZM18.9775 38.0005C19.0591 36.9097 18.7722 35.8232 18.1628 34.9151C17.5533 34.0069 16.6567 33.3299 15.6167 32.9924H15.598C12.8598 32.3135 10.3813 30.845 8.47007 28.7693C6.55884 26.6935 5.2991 24.102 4.84723 21.3163H14.3827C14.0112 20.6055 13.8172 19.8154 13.8172 19.0133C13.8172 18.2113 14.0112 17.4212 14.3827 16.7104H4.83789C5.20918 14.3875 6.14566 12.1916 7.56486 10.316C8.98407 8.44043 10.8425 6.94266 12.9764 5.9546C15.1104 4.96654 17.4545 4.5185 19.8022 4.64993C22.15 4.78136 24.4295 5.48822 26.4399 6.70829C27.4013 7.28547 28.5405 7.49069 29.6427 7.28524C30.745 7.07979 31.7339 6.47786 32.4229 5.59305C30.2172 3.38201 27.5004 1.74938 24.5133 0.839812C21.5261 -0.0697579 18.3607 -0.228182 15.2977 0.378576C12.2347 0.985335 9.36856 2.33854 6.95327 4.3183C4.53799 6.29805 2.64813 8.84322 1.45115 11.7283C0.254166 14.6134 -0.212984 17.7493 0.0910912 20.8581C0.395166 23.967 1.46108 26.9528 3.19438 29.5511C4.92768 32.1493 7.27486 34.2797 10.0279 35.7536C12.781 37.2274 15.855 37.9992 18.9775 38.0005Z" fill="#FEBF41"/>
<path d="M48.5823 12.9246V21.1077C48.0801 21.2293 47.5561 21.2293 47.0538 21.1077V12.9246H46.0956C46.0306 12.7668 45.9996 12.5972 46.0045 12.4266C46.0011 12.2509 46.0321 12.0761 46.0956 11.9122H47.0538V10.8064C47.0538 9.12998 47.755 8.17139 49.6247 8.17139C50.1649 8.16715 50.7032 8.23476 51.2256 8.37246C51.2724 8.52403 51.2976 8.68145 51.3004 8.84007C51.2979 8.99871 51.2727 9.15617 51.2256 9.30767C50.865 9.21117 50.4934 9.16166 50.1201 9.16038C48.9235 9.16038 48.573 9.67474 48.573 10.783V11.9239H51.2256C51.2906 12.0875 51.3224 12.2623 51.3191 12.4383C51.3212 12.6089 51.2895 12.7781 51.2256 12.9363L48.5823 12.9246ZM54.535 13.1116C54.535 13.1116 55.6404 11.8585 57.8069 11.8585C57.8565 12.0326 57.8809 12.2129 57.8794 12.3939C57.88 12.5679 57.8556 12.7412 57.8069 12.9082C57.1646 12.891 56.5282 13.0358 55.9564 13.3291C55.3846 13.6225 54.8958 14.055 54.535 14.5869V21.1101C54.2862 21.1656 54.0325 21.1961 53.7777 21.2012C53.5174 21.1985 53.258 21.168 53.0041 21.1101V12.0034C53.2584 11.9494 53.5178 11.9228 53.7777 11.9239C54.0327 11.9274 54.2865 11.9579 54.535 12.0151V13.1116ZM59.3027 14.788C59.3027 12.9176 60.2983 11.8585 63.0047 11.8585C65.7695 11.8585 66.6342 12.9269 66.6342 14.788V16.8922C65.6682 17.0003 64.6965 17.0495 63.7245 17.0395H60.8358V18.3301C60.8358 19.6394 61.4084 20.2473 63.2664 20.2473C65.1992 20.2473 66.3608 19.6044 66.3608 19.6044C66.436 19.7652 66.4736 19.9411 66.4706 20.1187C66.4721 20.2909 66.4346 20.4612 66.3608 20.6167C66.3608 20.6167 65.3091 21.262 63.2664 21.262C60.3731 21.262 59.305 20.1935 59.305 18.3325L59.3027 14.788ZM65.1806 16.0225V14.788C65.1806 13.4787 64.6664 12.8708 63.007 12.8708C61.3477 12.8708 60.8335 13.4787 60.8335 14.788V16.0225H65.1806ZM68.6816 14.788C68.6816 12.9176 69.6748 11.8585 72.3836 11.8585C75.146 11.8585 76.0131 12.9269 76.0131 14.788V16.8922C75.0463 17.0003 74.0738 17.0495 73.1011 17.0395H70.21V18.3301C70.21 19.6394 70.7803 20.2473 72.6406 20.2473C74.5758 20.2473 75.735 19.6044 75.735 19.6044C75.812 19.7647 75.8505 19.9409 75.8472 20.1187C75.8486 20.2912 75.8102 20.4616 75.735 20.6167C75.735 20.6167 74.6833 21.262 72.6406 21.262C69.7496 21.262 68.6816 20.1935 68.6816 18.3325V14.788ZM74.5547 16.0202V14.7857C74.5547 13.4764 74.0406 12.8685 72.3812 12.8685C70.7219 12.8685 70.2077 13.4764 70.2077 14.7857V16.0202H74.5547ZM81.1174 20.1865C81.1676 20.3373 81.1929 20.4952 81.1922 20.6541C81.1932 20.8047 81.1679 20.9542 81.1174 21.096C80.8105 21.2083 80.4859 21.2646 80.1592 21.262C78.7803 21.262 78.2661 20.5068 78.2661 19.1975V8.31869C78.768 8.19393 79.2927 8.19393 79.7946 8.31869V19.1905C79.7946 19.9083 80.0143 20.2426 80.6593 20.2426C80.8138 20.2351 80.9676 20.2171 81.1197 20.1889L81.1174 20.1865ZM88.3438 20.3736C88.3438 20.3736 87.2383 21.2573 85.1583 21.2573C83.3166 21.2573 82.6155 20.3549 82.6155 18.7697V18.4938C82.6155 17.0208 83.5503 16.2259 85.9342 15.9687L88.3438 15.7115V14.6828C88.3438 13.467 87.8296 12.8778 86.2637 12.8778C84.7352 12.8778 84.2374 13.4483 84.2374 14.6454V14.8792C84.0016 14.9364 83.7602 14.9669 83.5176 14.9704C83.2696 14.9677 83.0226 14.9371 82.7814 14.8792V14.6454C82.7814 12.8778 83.5924 11.8631 86.2637 11.8631C88.8977 11.8631 89.8559 12.8778 89.8559 14.6828V21.1124C89.6082 21.1695 89.3551 21.2 89.101 21.2036C88.8459 21.2019 88.5919 21.1713 88.3438 21.1124V20.3736ZM86.1889 16.946C84.6418 17.1097 84.144 17.624 84.144 18.4938V18.7697C84.144 19.7657 84.5132 20.2426 85.7098 20.2426C87.6076 20.2426 88.3438 19.3402 88.3438 19.3402V16.6842L86.1889 16.946ZM93.6841 12.7446C93.6841 12.7446 94.7708 11.8608 96.7971 11.8608C98.8234 11.8608 99.5619 12.9246 99.5619 14.7857V21.0984C99.3081 21.1563 99.0487 21.1869 98.7884 21.1895C98.5342 21.1862 98.2811 21.1556 98.0335 21.0984V14.7857C98.0335 13.4764 97.6268 12.8685 96.304 12.8685C94.4063 12.8685 93.6864 13.771 93.6864 13.771V21.1054C93.4377 21.1609 93.184 21.1914 92.9292 21.1966C92.6688 21.1939 92.4095 21.1633 92.1556 21.1054V12.0034C92.4095 11.9455 92.6688 11.9149 92.9292 11.9122C93.1841 11.9157 93.438 11.9462 93.6864 12.0034L93.6841 12.7446ZM101.771 14.788C101.771 12.9176 102.747 11.8585 105.381 11.8585C108.015 11.8585 108.864 12.9269 108.864 14.788V15.0218C108.634 15.0799 108.399 15.1105 108.163 15.113C107.933 15.1097 107.705 15.0791 107.482 15.0218V14.788C107.482 13.4787 106.985 12.8708 105.379 12.8708C103.773 12.8708 103.299 13.4787 103.299 14.788V18.3278C103.299 19.6371 103.853 20.245 105.636 20.245C107.482 20.245 108.581 19.602 108.581 19.602C108.658 19.7624 108.696 19.9385 108.693 20.1164C108.695 20.2888 108.656 20.4592 108.581 20.6144C108.581 20.6144 107.588 21.2597 105.636 21.2597C102.818 21.2597 101.768 20.1912 101.768 18.3301L101.771 14.788Z" fill="white"/>
<path d="M110.761 14.7857C110.761 12.9152 111.757 11.8561 114.463 11.8561C117.228 11.8561 118.092 12.9246 118.092 14.7857V16.8899C117.126 16.9979 116.155 17.0471 115.183 17.0372H112.289V18.3278C112.289 19.6371 112.862 20.245 114.72 20.245C116.653 20.245 117.814 19.602 117.814 19.602C117.89 19.7629 117.927 19.9388 117.924 20.1164C117.926 20.2886 117.888 20.4588 117.814 20.6144C117.814 20.6144 116.763 21.2597 114.72 21.2597C111.827 21.2597 110.759 20.1912 110.759 18.3301L110.761 14.7857ZM116.636 16.0202V14.7857C116.636 13.4764 116.122 12.8685 114.463 12.8685C112.804 12.8685 112.289 13.4764 112.289 14.7857V16.0202H116.636ZM121.872 12.7422C121.872 12.7422 122.958 11.8585 124.966 11.8585C126.974 11.8585 127.693 12.9269 127.693 14.788V21.1007C127.439 21.1586 127.18 21.1892 126.92 21.1919C126.666 21.1885 126.413 21.158 126.165 21.1007V14.788C126.165 13.4787 125.758 12.8708 124.468 12.8708C122.598 12.8708 121.874 13.7733 121.874 13.7733V21.1077C121.626 21.1633 121.373 21.1938 121.119 21.1989C120.859 21.1962 120.599 21.1656 120.345 21.1077V8.31868C120.599 8.2593 120.859 8.22794 121.119 8.22516C121.373 8.22885 121.626 8.26021 121.874 8.31868L121.872 12.7422ZM135.766 20.3712C135.766 20.3712 134.679 21.255 132.69 21.255C130.701 21.255 129.944 20.1865 129.944 18.3254V12.0128C130.198 11.9548 130.457 11.9243 130.718 11.9216C130.972 11.9249 131.225 11.9555 131.472 12.0128V18.3254C131.472 19.6347 131.879 20.2426 133.167 20.2426C135.037 20.2426 135.766 19.3402 135.766 19.3402V12.0034C136.014 11.9478 136.267 11.9173 136.521 11.9122C136.781 11.9149 137.04 11.9455 137.294 12.0034V21.1077C137.04 21.1656 136.781 21.1962 136.521 21.1989C136.267 21.1956 136.013 21.165 135.766 21.1077V20.3712ZM141.071 12.7422C141.071 12.7422 142.158 11.8585 144.184 11.8585C146.21 11.8585 146.947 12.9269 146.947 14.788V21.1007C146.444 21.2223 145.92 21.2223 145.418 21.1007V14.788C145.418 13.4787 145.014 12.8708 143.689 12.8708C141.791 12.8708 141.071 13.7733 141.071 13.7733V21.1077C140.823 21.1631 140.57 21.1936 140.316 21.1989C140.056 21.1964 139.796 21.1658 139.543 21.1077V12.0034C140.045 11.8818 140.569 11.8818 141.071 12.0034V12.7422ZM151.312 12.962V18.62C151.312 19.7259 151.698 20.2403 152.897 20.2403C153.242 20.2319 153.583 20.1704 153.909 20.0579C154.009 20.3561 154.009 20.6786 153.909 20.9768C153.423 21.1485 152.914 21.2424 152.399 21.255C150.511 21.2527 149.81 20.2941 149.81 18.62V12.962H148.851C148.788 12.8037 148.756 12.6345 148.758 12.464C148.755 12.288 148.786 12.1132 148.851 11.9496H149.88L150.027 10.161C150.448 10.04 150.895 10.04 151.317 10.161V11.9496H153.911C153.976 12.1132 154.008 12.288 154.005 12.464C154.006 12.6345 153.975 12.8037 153.911 12.962H151.312ZM46.0016 25.5874H46.469L46.5952 26.0924H46.6303C46.7536 25.9004 46.9263 25.7453 47.1304 25.6435C47.3481 25.5356 47.5886 25.4819 47.8316 25.4868C48.0646 25.4691 48.2986 25.5045 48.516 25.5903C48.7334 25.6762 48.9285 25.8103 49.0866 25.9825C49.3608 26.3145 49.4979 26.8561 49.4979 27.6074C49.5019 27.9314 49.4554 28.254 49.36 28.5637C49.2776 28.8272 49.1442 29.0718 48.9674 29.2838C48.8003 29.4785 48.5919 29.6334 48.3574 29.7374C48.107 29.8467 47.836 29.9009 47.5628 29.8964C47.3983 29.9004 47.2339 29.8878 47.072 29.8589C46.9368 29.8295 46.8052 29.7856 46.6794 29.728V31.4815H46.0063L46.0016 25.5874ZM47.7007 26.0784C47.4541 26.0681 47.2128 26.1517 47.0252 26.3122C46.841 26.4964 46.7185 26.7333 46.6747 26.9902V29.078C46.7784 29.158 46.8955 29.219 47.0206 29.2581C47.187 29.3052 47.3596 29.3264 47.5324 29.3212C47.7115 29.3298 47.8901 29.295 48.0529 29.2197C48.2157 29.1444 48.3578 29.0308 48.4673 28.8887C48.7185 28.5133 48.8377 28.065 48.8061 27.6144C48.8084 27.4033 48.7888 27.1926 48.7477 26.9855C48.7134 26.8195 48.6492 26.661 48.5584 26.5179C48.4742 26.3887 48.3583 26.2833 48.2219 26.2116C48.0621 26.1239 47.8829 26.0781 47.7007 26.0784ZM50.4819 25.8983C50.7127 25.7622 50.9647 25.6657 51.2274 25.6131C51.5185 25.5506 51.8154 25.5193 52.1132 25.5196C52.3526 25.5106 52.5913 25.5512 52.8143 25.6388C52.9739 25.7031 53.1135 25.8088 53.2186 25.9451C53.3092 26.069 53.3721 26.2109 53.4033 26.3613C53.4346 26.5151 53.4503 26.6718 53.45 26.8289L53.4266 27.8108C53.4033 28.1311 53.4033 28.4328 53.4033 28.7227L53.4266 29.3119C53.4405 29.4852 53.4718 29.6568 53.5201 29.8239H53.0223L52.847 29.2347H52.8236C52.769 29.3191 52.7055 29.3975 52.6343 29.4685C52.5531 29.5487 52.4611 29.6172 52.3609 29.6719C52.2428 29.7346 52.1182 29.784 51.9893 29.8192C51.8368 29.8596 51.6796 29.8792 51.5219 29.8777C51.3515 29.8792 51.1822 29.8507 51.0217 29.7935C50.874 29.7435 50.7381 29.6639 50.6221 29.5597C50.5082 29.4549 50.4175 29.3275 50.3556 29.1856C50.2899 29.0288 50.2572 28.86 50.2598 28.6899C50.2521 28.4733 50.3047 28.2588 50.4117 28.0704C50.5151 27.9025 50.6621 27.7659 50.8371 27.6752C51.042 27.5691 51.2632 27.498 51.4915 27.4648C51.7713 27.4209 52.0543 27.3998 52.3375 27.4017H52.5712C52.6494 27.4013 52.7276 27.4068 52.805 27.418L52.8283 26.9645C52.8521 26.7329 52.786 26.501 52.6437 26.3168C52.4519 26.1698 52.2107 26.1028 51.9706 26.1298C51.8673 26.13 51.7642 26.1378 51.6621 26.1532C51.5489 26.1674 51.4366 26.1877 51.3256 26.214C51.2146 26.2382 51.1053 26.2694 50.9984 26.3075C50.9036 26.3412 50.812 26.3834 50.7249 26.4337L50.4819 25.8983ZM51.6738 29.2744C51.8165 29.2766 51.9586 29.2553 52.0945 29.2113C52.2083 29.1741 52.3162 29.1205 52.4147 29.0523C52.4986 28.9916 52.5733 28.9192 52.6367 28.8372C52.6915 28.7661 52.7356 28.6873 52.7676 28.6034V27.902C52.6881 27.902 52.6086 27.902 52.5338 27.888H52.3001C52.1299 27.8878 51.9598 27.8972 51.7906 27.916C51.6406 27.9323 51.4935 27.9693 51.3536 28.0259C51.2359 28.0733 51.1316 28.1488 51.0498 28.2457C50.9725 28.3449 50.9327 28.4683 50.9376 28.5941C50.935 28.6852 50.9525 28.7759 50.9889 28.8595C51.0252 28.9431 51.0795 29.0177 51.1479 29.078C51.2936 29.2082 51.4832 29.2783 51.6785 29.2744H51.6738ZM55.114 26.3379C55.2651 26.0975 55.4772 25.9014 55.7287 25.7697C55.9929 25.6512 56.2806 25.5945 56.5701 25.6037C56.7938 25.5906 57.0176 25.6294 57.2239 25.717C57.4303 25.8046 57.6136 25.9387 57.7596 26.1087C58.0401 26.4454 58.1788 26.9426 58.1757 27.6004C58.1757 28.3579 58.0121 28.9284 57.6919 29.3165C57.5265 29.5106 57.3185 29.6639 57.0842 29.7645C56.8499 29.8651 56.5956 29.9102 56.341 29.8964C56.0748 29.9139 55.8084 29.8647 55.566 29.7533C55.3236 29.6418 55.1128 29.4716 54.9528 29.2581C54.6443 28.8302 54.4853 28.1592 54.4853 27.2474C54.482 26.8339 54.5062 26.4208 54.5578 26.0106C54.5933 25.7141 54.6639 25.4229 54.7681 25.1431C54.8448 24.9363 54.9589 24.7453 55.1047 24.5797C55.232 24.4427 55.3833 24.3302 55.5511 24.2477C55.7224 24.1673 55.9041 24.1114 56.0909 24.0817C56.2873 24.0505 56.4976 24.0224 56.722 23.9975C56.9518 23.9781 57.1804 23.9461 57.4067 23.9017C57.5556 23.8733 57.6939 23.8045 57.8064 23.7029L57.8835 24.3108C57.8281 24.3612 57.766 24.4037 57.6989 24.4371C57.6248 24.4747 57.5463 24.503 57.4652 24.5212C57.3525 24.547 57.2386 24.5673 57.124 24.582C56.9907 24.6007 56.8435 24.6124 56.6565 24.6241C56.4427 24.6363 56.2301 24.6652 56.0208 24.7106C55.8461 24.7496 55.6848 24.8343 55.5534 24.9561C55.4077 25.0973 55.3006 25.2736 55.2426 25.4681C55.1541 25.7543 55.1015 26.0504 55.086 26.3496L55.114 26.3379ZM55.1888 27.7009C55.1885 27.9078 55.2112 28.114 55.2566 28.3159C55.2964 28.4982 55.3659 28.6727 55.4623 28.8326C55.553 28.9809 55.6816 29.1024 55.8348 29.1846C55.988 29.2667 56.1603 29.3066 56.334 29.3002C56.5014 29.3111 56.6688 29.2786 56.82 29.2056C56.9711 29.1327 57.1008 29.0219 57.1964 28.884C57.4075 28.5093 57.505 28.0811 57.4769 27.6518C57.4787 27.4539 57.4592 27.2564 57.4184 27.0627C57.385 26.8971 57.3225 26.7388 57.2338 26.5951C57.1545 26.4683 57.0443 26.3637 56.9136 26.2911C56.7693 26.2168 56.6084 26.1806 56.4462 26.1859C56.2675 26.1684 56.0871 26.1941 55.9204 26.2608C55.7536 26.3276 55.6053 26.4334 55.488 26.5693C55.2649 26.9026 55.1596 27.3009 55.1888 27.7009ZM58.9983 27.6916C58.9983 26.9777 59.1541 26.4322 59.4657 26.055C59.6354 25.8624 59.8467 25.7111 60.0836 25.6126C60.3206 25.5142 60.5769 25.4712 60.833 25.4868C61.1145 25.4797 61.3942 25.5332 61.6533 25.6435C61.8794 25.7416 62.0777 25.8942 62.2306 26.0877C62.3893 26.2962 62.5038 26.5349 62.5671 26.7891C62.6427 27.0847 62.6796 27.3888 62.677 27.6939C62.677 28.4063 62.5211 28.9518 62.2095 29.3306C62.0402 29.5235 61.829 29.6751 61.5919 29.7736C61.3549 29.8721 61.0985 29.9149 60.8423 29.8987C60.5611 29.9049 60.2817 29.8524 60.022 29.7444C59.7968 29.6447 59.5994 29.4914 59.4471 29.2978C59.2879 29.0896 59.1733 28.8509 59.1105 28.5964C59.0339 28.301 58.9962 27.9968 58.9983 27.6916ZM59.6995 27.6916C59.6988 27.8982 59.7199 28.1043 59.7626 28.3065C59.7989 28.4877 59.8653 28.6615 59.9589 28.8209C60.0483 28.9645 60.17 29.0854 60.3141 29.1739C60.4744 29.2666 60.6573 29.3127 60.8423 29.3072C61.6065 29.3072 61.9875 28.7741 61.9875 27.6939C61.9884 27.485 61.9673 27.2765 61.9244 27.072C61.8883 26.8904 61.8211 26.7164 61.7257 26.5577C61.639 26.4139 61.5177 26.2942 61.3728 26.2093C61.2112 26.1182 61.0278 26.073 60.8423 26.0784C60.0789 26.0737 59.6971 26.6114 59.6971 27.6916H59.6995ZM66.2855 26.1882H64.972V29.8075H64.2989V26.1859H62.9855V25.5967H66.2855V26.1882ZM66.8814 25.8983C67.1124 25.7626 67.3644 25.6662 67.627 25.6131C67.9189 25.5506 68.2166 25.5192 68.5151 25.5196C68.7545 25.5103 68.9933 25.5509 69.2162 25.6388C69.3769 25.7057 69.5166 25.8148 69.6205 25.9544C69.7121 26.0778 69.7751 26.22 69.8052 26.3706C69.8365 26.5245 69.8522 26.6812 69.8519 26.8382L69.8285 27.8202C69.8052 28.1405 69.8052 28.4421 69.8052 28.732L69.8285 29.3212C69.8436 29.4944 69.8749 29.6659 69.922 29.8332H69.4242L69.2489 29.2253H69.2069C69.1522 29.3098 69.0888 29.3881 69.0176 29.4591C68.9363 29.5394 68.8443 29.6078 68.7441 29.6626C68.6261 29.7252 68.5014 29.7746 68.3725 29.8099C68.2163 29.8513 68.055 29.871 67.8934 29.8683C67.723 29.8699 67.5537 29.8414 67.3933 29.7841C67.2456 29.7341 67.1096 29.6546 66.9936 29.5503C66.8798 29.446 66.7897 29.3185 66.7295 29.1762C66.6619 29.0199 66.6284 28.8509 66.6314 28.6806C66.6236 28.464 66.6762 28.2494 66.7833 28.061C66.8866 27.8932 67.0337 27.7566 67.2086 27.6659C67.4144 27.5598 67.6363 27.4887 67.8654 27.4555C68.1444 27.4115 68.4266 27.3904 68.7091 27.3923H68.9428C69.021 27.3918 69.0991 27.3973 69.1765 27.4087C69.1934 27.2581 69.202 27.1067 69.2022 26.9551C69.227 26.7235 69.1608 26.4912 69.0176 26.3075C68.8258 26.1605 68.5846 26.0934 68.3445 26.1204C68.242 26.1205 68.1396 26.1283 68.0383 26.1438C67.9251 26.1577 67.8127 26.178 67.7018 26.2046C67.5901 26.2288 67.48 26.26 67.3722 26.2981C67.2774 26.3318 67.1859 26.3741 67.0988 26.4244L66.8814 25.8983ZM68.0734 29.2744C68.2161 29.2769 68.3583 29.2556 68.4941 29.2113C68.6079 29.1741 68.7157 29.1205 68.8142 29.0523C68.9022 28.9924 68.9809 28.9199 69.048 28.8372C69.1012 28.7655 69.1444 28.6868 69.1765 28.6034V27.902C69.0994 27.902 69.0199 27.902 68.9428 27.888H68.7091C68.5388 27.8878 68.3687 27.8972 68.1996 27.916C68.0496 27.9327 67.9026 27.9696 67.7625 28.0259C67.6452 28.0728 67.5416 28.1484 67.461 28.2457C67.382 28.3441 67.3413 28.4679 67.3465 28.5941C67.344 28.6852 67.3615 28.7759 67.3978 28.8595C67.4342 28.9431 67.4885 29.0177 67.5569 29.078C67.699 29.2049 67.8829 29.2748 68.0734 29.2744ZM73.3693 25.5967L73.9863 25.5546L74.7903 25.5313C75.3465 25.5313 75.7438 25.617 75.9822 25.7884C76.1036 25.8769 76.2005 25.9947 76.2639 26.1309C76.3273 26.2671 76.355 26.4172 76.3444 26.567C76.343 26.7713 76.2829 26.9709 76.1715 27.1422C76.0382 27.345 75.8367 27.4934 75.6036 27.5607V27.5934C75.8713 27.6205 76.1203 27.7434 76.3047 27.9394C76.475 28.1932 76.5421 28.5025 76.4921 28.8041C76.4422 29.1056 76.279 29.3768 76.0359 29.562C75.6 29.7864 75.1113 29.8882 74.622 29.8566C74.3883 29.8566 74.1686 29.8566 73.9676 29.8332L73.3716 29.7865L73.3693 25.5967ZM74.865 27.3643C74.9655 27.3647 75.0652 27.3473 75.1595 27.3128C75.2514 27.281 75.3374 27.2344 75.4143 27.1749C75.4884 27.1181 75.5518 27.0484 75.6012 26.9691C75.6471 26.8929 75.6713 26.8056 75.6714 26.7166C75.681 26.628 75.6676 26.5383 75.6324 26.4564C75.5972 26.3744 75.5414 26.303 75.4704 26.249C75.2518 26.1457 75.0103 26.1006 74.7692 26.1181H74.3485L74.0494 26.1345V27.3549L74.865 27.3643ZM74.04 29.2347C74.1452 29.2347 74.2504 29.2581 74.3556 29.2581H74.7201C75.0088 29.2772 75.2975 29.2225 75.5592 29.0991C75.6508 29.0421 75.7249 28.9608 75.7731 28.8642C75.8214 28.7676 75.842 28.6596 75.8326 28.552C75.8346 28.4573 75.8145 28.3634 75.774 28.2777C75.7334 28.1921 75.6735 28.1171 75.5989 28.0587C75.3532 27.9083 75.0653 27.8419 74.7786 27.8693H74.0377L74.04 29.2347ZM82.2971 26.1859H80.9883V29.8052H80.3152V26.1859H78.9947V25.5967H82.2901L82.2971 26.1859ZM82.9679 25.5944L83.5849 25.5523L84.3888 25.5289C84.9451 25.5289 85.3424 25.6146 85.5808 25.7861C85.7018 25.8748 85.7985 25.9927 85.8619 26.1288C85.9252 26.2649 85.9531 26.4149 85.943 26.5647C85.9404 26.7688 85.8804 26.9681 85.7701 27.1398C85.6367 27.3427 85.4353 27.4911 85.2021 27.5583V27.5911C85.4697 27.6188 85.7185 27.7415 85.9033 27.9371C86.0736 28.1909 86.1406 28.5002 86.0907 28.8017C86.0407 29.1033 85.8776 29.3744 85.6345 29.5597C85.1985 29.7841 84.7098 29.8859 84.2205 29.8543C83.9868 29.8543 83.7671 29.8543 83.5662 29.8309L82.9679 29.7841V25.5944ZM84.4636 27.3619C84.564 27.3624 84.6637 27.3449 84.7581 27.3105C84.8499 27.2787 84.936 27.2321 85.0128 27.1726C85.087 27.1158 85.1503 27.0461 85.1998 26.9668C85.2456 26.8905 85.2698 26.8033 85.2699 26.7143C85.2796 26.6256 85.2662 26.536 85.231 26.454C85.1957 26.3721 85.1399 26.3007 85.0689 26.2467C84.8504 26.1433 84.6089 26.0982 84.3678 26.1158H83.9471L83.648 26.1321V27.3549L84.4636 27.3619ZM83.6386 29.2324C83.7438 29.2324 83.8489 29.2557 83.9541 29.2557H84.3187C84.6073 29.2745 84.896 29.2198 85.1577 29.0968C85.2492 29.0395 85.3231 28.9582 85.3713 28.8617C85.4196 28.7651 85.4403 28.6572 85.4312 28.5497C85.4326 28.455 85.4123 28.3613 85.3718 28.2757C85.3313 28.1902 85.2716 28.1151 85.1975 28.0563C84.9515 27.9066 84.6638 27.8402 84.3771 27.8669H83.6363L83.6386 29.2324ZM86.9246 27.6893C86.9246 26.9754 87.0804 26.4298 87.392 26.0526C87.5613 25.8596 87.7726 25.7081 88.0096 25.6096C88.2466 25.5111 88.5031 25.4683 88.7592 25.4845C89.0407 25.4779 89.3203 25.5313 89.5796 25.6411C89.8046 25.74 90.0021 25.8925 90.1545 26.0854C90.3132 26.2938 90.4277 26.5325 90.4911 26.7868C90.5678 27.0821 90.6047 27.3864 90.6009 27.6916C90.6009 28.4039 90.4451 28.9495 90.1335 29.3282C89.9639 29.5208 89.7525 29.6721 89.5156 29.7705C89.2786 29.869 89.0223 29.912 88.7663 29.8964C88.485 29.903 88.2055 29.8504 87.9459 29.742C87.7196 29.6431 87.5213 29.4897 87.3686 29.2955C87.2095 29.0873 87.0949 28.8485 87.0321 28.5941C86.9571 28.2984 86.9209 27.9943 86.9246 27.6893ZM87.6257 27.6893C87.6251 27.8959 87.6462 28.102 87.6888 28.3042C87.7249 28.4858 87.7921 28.6598 87.8875 28.8185C87.9754 28.9626 88.0964 29.0836 88.2404 29.1716C88.4014 29.2646 88.5851 29.3107 88.7709 29.3048C89.5328 29.3048 89.9161 28.7718 89.9161 27.6916C89.917 27.4826 89.8959 27.2742 89.853 27.0697C89.8167 26.8885 89.7503 26.7146 89.6567 26.5553C89.5686 26.4126 89.4476 26.2931 89.3038 26.2069C89.1419 26.1165 88.9586 26.0712 88.7733 26.076C88.0098 26.0713 87.6281 26.6091 87.6281 27.6893H87.6257ZM94.7423 29.4591C94.5523 29.6048 94.3367 29.7135 94.1066 29.7795C93.843 29.8595 93.5687 29.8989 93.2933 29.8964C93.0083 29.9027 92.725 29.8502 92.4612 29.742C92.2339 29.6437 92.0347 29.4903 91.8816 29.2955C91.7229 29.087 91.6084 28.8484 91.5451 28.5941C91.4677 28.2973 91.4307 27.9913 91.4352 27.6846C91.4352 26.9676 91.5911 26.422 91.9027 26.048C92.0739 25.8564 92.2863 25.7062 92.5239 25.6086C92.7615 25.511 93.0182 25.4686 93.2746 25.4845C93.4671 25.4848 93.6591 25.506 93.8472 25.5476C94.0441 25.5887 94.2278 25.6779 94.3819 25.8072C94.536 25.9365 94.6558 26.102 94.7306 26.2888C94.8349 26.5608 94.8834 26.851 94.8732 27.1422C94.8718 27.3481 94.8546 27.5537 94.8217 27.7571H92.134C92.1314 27.9783 92.1565 28.199 92.2088 28.414C92.2522 28.5899 92.3318 28.7547 92.4425 28.898C92.5537 29.0319 92.6968 29.1357 92.8586 29.1996C93.0586 29.2748 93.2713 29.3106 93.4849 29.3048C93.6801 29.3045 93.8738 29.2705 94.0575 29.2043C94.2154 29.1567 94.3617 29.0771 94.4875 28.9705L94.7423 29.4591ZM92.0242 24.4511C92.0192 24.3367 92.0595 24.225 92.1364 24.1401C92.2179 24.065 92.3247 24.0234 92.4355 24.0234C92.5464 24.0234 92.6531 24.065 92.7347 24.1401C92.7736 24.1817 92.8038 24.2306 92.8234 24.284C92.8431 24.3374 92.8519 24.3942 92.8492 24.4511C92.8513 24.5054 92.8422 24.5596 92.8225 24.6103C92.8028 24.6609 92.7729 24.707 92.7347 24.7457C92.6539 24.8223 92.5469 24.865 92.4355 24.865C92.3242 24.865 92.2171 24.8223 92.1364 24.7457C92.0987 24.7062 92.0694 24.6596 92.0501 24.6086C92.0309 24.5576 92.0221 24.5032 92.0242 24.4487V24.4511ZM93.2933 26.0877C93.0052 26.0739 92.7221 26.1672 92.4986 26.3496C92.2706 26.5902 92.1428 26.9088 92.1411 27.2404H94.2281C94.2626 26.9233 94.1795 26.6046 93.9944 26.3449C93.9035 26.2524 93.794 26.1804 93.6731 26.1336C93.5522 26.0868 93.4227 26.0664 93.2933 26.0737V26.0877ZM93.6392 24.4511C93.6365 24.3942 93.6452 24.3374 93.6649 24.284C93.6846 24.2306 93.7148 24.1817 93.7537 24.1401C93.7921 24.1008 93.8384 24.0701 93.8896 24.05C93.9407 24.0298 93.9956 24.0207 94.0505 24.0232C94.1073 24.0198 94.1641 24.0284 94.2173 24.0486C94.2705 24.0687 94.3188 24.0999 94.359 24.1401C94.4358 24.225 94.4762 24.3367 94.4712 24.4511C94.4736 24.5067 94.4643 24.5621 94.4439 24.6139C94.4235 24.6657 94.3924 24.7126 94.3528 24.7516C94.3131 24.7906 94.2657 24.8208 94.2137 24.8403C94.1616 24.8599 94.106 24.8682 94.0505 24.8649C93.9954 24.8671 93.9405 24.8577 93.8893 24.8371C93.8381 24.8166 93.7919 24.7854 93.7537 24.7457C93.7152 24.7067 93.6851 24.6603 93.6654 24.6092C93.6457 24.5581 93.6368 24.5035 93.6392 24.4487V24.4511ZM99.4212 27.2941L99.4726 26.4945H99.4305L99.1267 27.1422L98.1101 28.7928H97.8764L96.8153 27.1422L96.5255 26.4945H96.4928L96.5629 27.2848V29.7935H95.9389V25.585H96.605L97.7735 27.4718L98.0072 27.9581H98.0236L98.276 27.4531L99.3791 25.5827H100.052V29.7911H99.3978L99.4212 27.2941ZM105.512 29.8286C105.415 29.861 105.314 29.8807 105.213 29.887H104.932C104.709 29.8972 104.486 29.8536 104.283 29.7601C104.079 29.6665 103.901 29.5257 103.764 29.3493C103.49 28.9892 103.352 28.4374 103.352 27.6822C103.352 26.9271 103.504 26.4197 103.806 26.0456C103.968 25.86 104.171 25.7142 104.399 25.6193C104.627 25.5245 104.873 25.4832 105.119 25.4985C105.255 25.4966 105.39 25.5083 105.523 25.5336V23.8829H106.161V25.5429L106.43 25.5102C106.507 25.5055 106.584 25.5102 106.664 25.5102C106.896 25.4934 107.128 25.5281 107.345 25.6117C107.561 25.6954 107.756 25.826 107.917 25.9942C108.197 26.3168 108.337 26.8515 108.337 27.5981C108.342 27.9205 108.303 28.242 108.223 28.5543C108.16 28.8135 108.047 29.0581 107.891 29.2744C107.751 29.4655 107.569 29.6209 107.358 29.728C107.131 29.8385 106.881 29.893 106.629 29.887H106.407C106.327 29.881 106.249 29.8653 106.173 29.8402V31.4769H105.535L105.512 29.8286ZM105.098 29.3376C105.166 29.3411 105.234 29.3411 105.301 29.3376C105.374 29.3315 105.447 29.3206 105.519 29.3048V26.1017C105.449 26.1017 105.388 26.083 105.332 26.0784C105.26 26.0743 105.188 26.0743 105.117 26.0784C104.96 26.0718 104.804 26.104 104.662 26.1721C104.521 26.2402 104.399 26.3421 104.306 26.4688C104.084 26.8372 103.983 27.2654 104.016 27.6939C104.014 27.9145 104.036 28.1347 104.079 28.3509C104.115 28.536 104.181 28.7138 104.275 28.877C104.359 29.0189 104.476 29.1379 104.617 29.223C104.765 29.3025 104.932 29.3412 105.1 29.3352L105.098 29.3376ZM106.524 26.0643H106.337C106.27 26.0697 106.204 26.0823 106.14 26.1017V29.3002C106.203 29.3126 106.266 29.3196 106.33 29.3212H106.563C106.727 29.328 106.888 29.29 107.031 29.2113C107.174 29.1326 107.293 29.0161 107.374 28.8746C107.58 28.4776 107.674 28.0326 107.648 27.5864C107.669 27.1967 107.583 26.8087 107.4 26.4641C107.303 26.3247 107.169 26.2145 107.014 26.1453C106.859 26.0761 106.688 26.0505 106.519 26.0713L106.524 26.0643ZM109.104 27.6893C109.104 26.9754 109.26 26.4298 109.571 26.0526C109.741 25.8601 109.952 25.7088 110.189 25.6103C110.426 25.5119 110.682 25.4688 110.939 25.4845C111.22 25.4774 111.5 25.5308 111.759 25.6411C111.985 25.7393 112.183 25.8919 112.336 26.0854C112.495 26.2938 112.609 26.5325 112.673 26.7868C112.748 27.0824 112.785 27.3865 112.783 27.6916C112.783 28.4039 112.627 28.9495 112.315 29.3282C112.146 29.5212 111.935 29.6728 111.698 29.7713C111.46 29.8698 111.204 29.9126 110.948 29.8964C110.667 29.9026 110.387 29.85 110.128 29.742C109.902 29.643 109.704 29.4896 109.553 29.2955C109.393 29.0873 109.279 28.8485 109.216 28.5941C109.138 28.2989 109.101 27.9945 109.104 27.6893ZM109.805 27.6893C109.804 27.8959 109.826 28.102 109.868 28.3042C109.904 28.4854 109.971 28.6592 110.064 28.8185C110.154 28.9616 110.274 29.0823 110.417 29.1716C110.578 29.2642 110.762 29.3103 110.948 29.3048C111.712 29.3048 112.093 28.7718 112.093 27.6916C112.094 27.4826 112.073 27.2742 112.03 27.0697C111.994 26.8881 111.927 26.714 111.831 26.5553C111.739 26.4054 111.609 26.2829 111.454 26.2006C111.298 26.1184 111.124 26.0794 110.948 26.0877C110.184 26.0752 109.803 26.6099 109.803 27.6916L109.805 27.6893ZM113.848 25.585H114.316L114.442 26.09H114.477C114.6 25.8981 114.773 25.743 114.977 25.6411C115.195 25.5333 115.435 25.4795 115.678 25.4845C115.911 25.4668 116.145 25.5021 116.363 25.588C116.58 25.6739 116.775 25.8079 116.933 25.9802C117.207 26.3122 117.345 26.8538 117.345 27.6051C117.349 27.9291 117.302 28.2517 117.207 28.5613C117.124 28.8248 116.991 29.0695 116.814 29.2815C116.647 29.4761 116.439 29.6311 116.204 29.735C115.954 29.8444 115.683 29.8986 115.409 29.894C115.245 29.898 115.081 29.8855 114.919 29.8566C114.783 29.8272 114.652 29.7833 114.526 29.7257V31.4792H113.853L113.848 25.585ZM115.547 26.076C115.301 26.0658 115.059 26.1493 114.872 26.3098C114.688 26.494 114.565 26.731 114.521 26.9879V29.0757C114.625 29.1562 114.742 29.2172 114.867 29.2557C115.034 29.3028 115.206 29.3241 115.379 29.3189C115.556 29.3256 115.733 29.2898 115.893 29.2146C116.054 29.1394 116.194 29.0268 116.302 28.8863C116.553 28.511 116.673 28.0627 116.641 27.6121C116.643 27.401 116.624 27.1902 116.583 26.9832C116.548 26.8171 116.484 26.6587 116.393 26.5156C116.309 26.3864 116.193 26.2809 116.057 26.2093C115.901 26.1235 115.726 26.0777 115.547 26.076ZM121.874 27.2918L121.925 26.4922H121.883L121.579 27.1398L120.563 28.7905H120.329L119.27 27.1398L118.99 26.4922H118.96L119.03 27.2824V29.7911H118.408V25.5827H119.072L120.24 27.4695L120.474 27.9558H120.49L120.743 27.4508L121.841 25.5804H122.514V29.7888H121.86L121.874 27.2918ZM123.76 25.8937C123.99 25.7579 124.241 25.6615 124.503 25.6084C124.795 25.546 125.093 25.5147 125.391 25.5149C125.631 25.506 125.869 25.5465 126.092 25.6341C126.252 25.6984 126.392 25.8042 126.497 25.9404C126.587 26.0644 126.65 26.2063 126.681 26.3566C126.713 26.5105 126.728 26.6671 126.728 26.8242L126.705 27.8062C126.681 28.1265 126.681 28.4281 126.681 28.718L126.705 29.3072C126.719 29.4806 126.75 29.6521 126.798 29.8192H126.3L126.123 29.23H126.081C126.028 29.3149 125.965 29.3934 125.894 29.4638C125.813 29.544 125.721 29.6125 125.62 29.6672C125.502 29.7299 125.378 29.7793 125.249 29.8145C125.096 29.8549 124.939 29.8746 124.781 29.873C124.611 29.8746 124.442 29.8461 124.281 29.7888C124.133 29.7388 123.998 29.6592 123.882 29.555C123.768 29.4502 123.677 29.3228 123.615 29.1809C123.549 29.0241 123.517 28.8553 123.519 28.6853C123.511 28.4686 123.563 28.2538 123.671 28.0657C123.774 27.8979 123.92 27.7613 124.094 27.6706C124.3 27.5647 124.522 27.4937 124.751 27.4601C125.031 27.4162 125.314 27.395 125.597 27.397H125.831C125.909 27.3966 125.987 27.4021 126.064 27.4134L126.088 26.9598C126.112 26.7282 126.045 26.4963 125.903 26.3122C125.711 26.1651 125.47 26.0981 125.23 26.1251C125.127 26.1253 125.024 26.1331 124.922 26.1485C124.803 26.1532 124.685 26.1649 124.569 26.1836C124.458 26.2078 124.348 26.239 124.241 26.2771C124.146 26.3098 124.055 26.3521 123.968 26.4033L123.76 25.8937ZM124.952 29.2698C125.095 29.2719 125.237 29.2506 125.373 29.2066C125.486 29.1689 125.594 29.1154 125.693 29.0477C125.777 28.987 125.851 28.9145 125.915 28.8326C125.969 28.7608 126.013 28.6822 126.046 28.5988V27.8973C125.966 27.8973 125.887 27.8973 125.812 27.8833H125.578C125.408 27.8831 125.238 27.8924 125.069 27.9114C124.919 27.9277 124.772 27.9646 124.632 28.0213C124.514 28.0687 124.41 28.1441 124.328 28.241C124.251 28.3403 124.211 28.4637 124.216 28.5894C124.213 28.6806 124.231 28.7712 124.267 28.8548C124.303 28.9384 124.358 29.0131 124.426 29.0734C124.57 29.2026 124.758 29.2727 124.952 29.2698ZM130.678 26.1836H129.364V29.8028H128.691V26.1859H127.373V25.5967H130.669L130.678 26.1836ZM134.277 29.4568C134.087 29.6025 133.871 29.7112 133.641 29.7771C133.378 29.857 133.105 29.8964 132.83 29.894C132.545 29.9005 132.261 29.848 131.996 29.7397C131.769 29.6414 131.569 29.4879 131.416 29.2931C131.258 29.0847 131.143 28.846 131.08 28.5917C131.004 28.2947 130.967 27.9889 130.97 27.6822C130.97 26.9653 131.13 26.4197 131.449 26.0456C131.62 25.8542 131.833 25.7041 132.07 25.6065C132.308 25.5089 132.565 25.4664 132.821 25.4822C133.014 25.4823 133.206 25.5035 133.394 25.5453C133.591 25.5864 133.774 25.6756 133.928 25.8049C134.082 25.9342 134.202 26.0996 134.277 26.2864C134.382 26.5581 134.431 26.8486 134.42 27.1398C134.418 27.3458 134.401 27.5514 134.368 27.7547H131.669C131.666 27.976 131.691 28.1967 131.744 28.4117C131.787 28.5876 131.867 28.7524 131.977 28.8957C132.088 29.0296 132.232 29.1333 132.393 29.1973C132.593 29.2725 132.806 29.3082 133.02 29.3025C133.215 29.3023 133.409 29.2683 133.592 29.202C133.75 29.1544 133.897 29.0748 134.022 28.9682L134.277 29.4568ZM132.828 26.0737C132.539 26.0593 132.255 26.1526 132.031 26.3355C131.803 26.5762 131.675 26.8947 131.673 27.2263H133.761C133.795 26.9093 133.712 26.5906 133.527 26.3309C133.435 26.2407 133.326 26.1709 133.205 26.1262C133.085 26.0814 132.956 26.0627 132.828 26.0713V26.0737Z" fill="white"/>
</g>
<defs>
<clipPath id="clip0_6_332">
<rect width="154" height="38" fill="white"/>
</clipPath>
</defs>
</svg>
