<svg width="100" height="20" viewBox="0 0 100 20" fill="none" xmlns="http://www.w3.org/2000/svg">
<path fill-rule="evenodd" clip-rule="evenodd" d="M50.835 0.345549C42.2091 2.58405 40.9842 15.0457 49.0047 18.9662C55.401 22.0928 62.8018 17.7803 63.2056 10.6912C63.6057 3.6669 57.5507 -1.3971 50.835 0.345549ZM8.80827 4.63608C7.00083 6.98065 4.61638 10.0081 3.50948 11.3636L1.49705 13.8282L1.49178 16.6942L1.48651 19.5601H3.51354H5.54056V16.6494V13.7387L6.26948 12.8605L6.99854 11.9822L9.80056 15.7711L12.6026 19.5601H15.1016C17.0815 19.5601 17.5731 19.5242 17.468 19.3875C17.3949 19.2926 15.6673 17.0705 13.6288 14.4497C11.5903 11.8289 9.87692 9.60934 9.82137 9.51735C9.75732 9.41141 11.0596 7.72968 13.3737 4.93028C15.383 2.49938 17.027 0.477038 17.027 0.436017C17.027 0.395133 15.9172 0.364195 14.5608 0.367371L12.0946 0.373034L8.80827 4.63608ZM17.6291 0.737945C17.6975 1.02081 22.3265 17.6943 22.7885 19.3217C22.852 19.5455 23.048 19.5636 25.0307 19.5289L27.2031 19.4911L27.6316 17.8336C27.8673 16.9221 28.5726 14.0787 29.1989 11.5151C29.8254 8.95148 30.3683 6.854 30.4054 6.85414C30.4426 6.85428 31.1776 9.6976 32.0387 13.1727L33.6043 19.4911L35.782 19.5291L37.9596 19.5669L38.2299 18.6313C38.3785 18.1166 39.2912 14.8365 40.2581 11.342C41.225 7.84763 42.2923 4.00585 42.6297 2.80462C42.9672 1.6034 43.2433 0.562396 43.2433 0.491127C43.2433 0.415575 42.2939 0.36157 40.9668 0.36157H38.6903L38.4718 1.36293C38.0911 3.10655 35.5541 13.7913 35.51 13.8363C35.4869 13.86 35.1418 12.5937 34.743 11.0223C34.1545 8.70259 33.2189 5.0434 32.1496 0.879517L32.0166 0.36157H30.4002C29.5112 0.36157 28.7838 0.389885 28.7838 0.424553C28.7838 0.496927 25.7391 12.4067 25.4808 13.3445C25.35 13.8195 25.2916 13.9007 25.233 13.6898C25.1908 13.538 24.6877 11.4249 24.115 8.99402C23.5423 6.56312 22.8498 3.6419 22.576 2.50242L22.078 0.43063L19.8073 0.392647L17.5366 0.354802L17.6291 0.737945ZM65.946 9.96085V19.5601H67.973H70V16.1715V12.7829L71.4527 12.8221L72.9054 12.8614L74.7124 16.2107L76.5193 19.5601H78.8562H81.193L79.1204 15.9493L77.048 12.3383L77.9742 11.8847C82.1053 9.86113 82.128 3.3466 78.0115 1.15603C76.6099 0.410188 76.1693 0.36157 70.8042 0.36157H65.946V9.96085ZM84.0091 0.453696C83.9595 0.504247 83.9189 4.82393 83.9189 10.053V19.5601H86.0135H88.1081V16.5748V13.5895L88.7953 12.7788L89.4824 11.968L92.275 15.7635L95.0676 19.559L97.5338 19.5596C98.8903 19.5599 100 19.528 100 19.4886C100 19.4491 98.2881 17.2272 96.1958 14.5508C94.1035 11.8744 92.3424 9.61915 92.2824 9.53904C92.2162 9.45092 93.6068 7.65578 95.8134 4.9811C97.8155 2.55435 99.455 0.520683 99.4566 0.461983C99.4581 0.40342 98.3538 0.372343 97.0023 0.392923L94.5451 0.43063L91.3604 4.55473L88.1757 8.67897L88.1399 4.5202L88.1042 0.36157H86.1016C85.0003 0.36157 84.0585 0.403006 84.0091 0.453696ZM55.7074 4.25998C60.742 6.6384 59.9134 14.9871 54.5315 16.1092C49.2006 17.2207 45.6745 10.3166 49.2208 5.71079C50.5969 3.92352 53.5822 3.25586 55.7074 4.25998ZM75.5122 4.35363C77.4101 5.34836 77.3877 7.89887 75.473 8.80203C75.011 9.01998 74.5745 9.05741 72.4662 9.06004L70 9.06308V6.57693V4.09079H72.5054C74.7023 4.09079 75.0724 4.12311 75.5122 4.35363Z" fill="white"/>
<path d="M0 2.90051V1.65744V0.414368H2.62014H5.24014L5.31243 0.863255C5.47054 1.84611 5.12257 6.8637 5.12257 6.8637C5.12257 6.8637 1.84324 10.6352 1.7427 10.6352C1.67419 10.6352 1.62162 8.95552 1.62162 6.76785V2.90051H0.810811H0Z" fill="#FEBF41"/>
</svg>
