<svg width="92" height="20" viewBox="0 0 92 20" fill="none" xmlns="http://www.w3.org/2000/svg">
<path fill-rule="evenodd" clip-rule="evenodd" d="M0.0532816 0.240951C0.0826166 0.370702 0.665824 3.58952 1.34941 7.39399C2.033 11.1985 2.80638 15.502 3.068 16.9576L3.54375 19.6039H4.89356H6.24337L6.67531 17.01C8.1237 8.31042 8.40488 6.65721 8.4428 6.61738C8.46605 6.59296 8.49997 6.59264 8.51823 6.61664C8.53659 6.64075 9.05554 9.49012 9.67148 12.9487C10.2875 16.4073 10.8147 19.321 10.8432 19.4235C10.89 19.5919 11.0214 19.6071 12.2059 19.5807L13.5167 19.5515L13.737 18.2415C13.8581 17.5209 14.5894 13.1772 15.362 8.58889C16.1346 4.00046 16.7667 0.192112 16.7667 0.125769C16.7667 0.0403518 16.3448 0.00513669 15.3218 0.00513669C13.9049 0.00513669 13.8759 0.00974817 13.8262 0.240951C13.7982 0.370702 13.3909 3.14147 12.921 6.39833C12.451 9.65519 12.0409 12.3906 12.0096 12.4771C11.9223 12.7183 11.8967 12.5859 10.7736 6.05509L9.73224 0L8.4396 0.0287188L7.14707 0.0575399L6.12583 6.27843C5.56417 9.69995 5.08164 12.5235 5.0535 12.553C5.02547 12.5825 4.97787 12.4949 4.94784 12.3585C4.89146 12.102 2.99716 0.160147 2.99716 0.0608951C2.99716 0.0301868 2.32275 0.00513669 1.49858 0.00513669H0L0.0532816 0.240951ZM27.7423 9.75214V19.4991H29.0395H30.3366V18.7655C30.3366 18.362 30.3601 18.0318 30.389 18.0318C30.4178 18.0318 30.6985 18.3079 31.0128 18.6453C31.8858 19.5824 32.2725 19.7565 33.4796 19.7565C34.3076 19.7565 34.5454 19.7184 34.8765 19.5327C35.4221 19.2265 35.7663 18.8206 36.0682 18.1273C36.4781 17.1861 36.5407 16.2525 36.5004 11.6849C36.4655 7.72078 36.452 7.46243 36.2462 6.81316C35.8193 5.4665 34.8828 4.72436 33.6082 4.72248C32.7284 4.72111 32.0415 4.99833 31.2845 5.66007C30.9552 5.94787 30.6522 6.18463 30.611 6.1861C30.5698 6.18756 30.5362 4.79741 30.5362 3.09693V0.00513669H29.1393H27.7423V9.75214ZM38.2191 9.80454V19.6039H39.616H41.0129V9.80454V0.00513669H39.616H38.2191V9.80454ZM20.5929 4.83619C18.8613 5.14002 17.7522 6.08129 17.258 7.66649C17.0202 8.42906 17.0161 8.50547 17.0161 12.2151C17.0161 15.8155 17.0262 16.0217 17.2364 16.7218C17.8232 18.6753 19.1049 19.6767 21.1569 19.7848C23.189 19.892 24.65 19.149 25.3893 17.6327C25.638 17.1227 25.9463 15.7679 25.9463 15.1853V14.678H24.5638H23.1811L23.1141 15.436C23.0328 16.3553 22.8174 16.8483 22.3543 17.1749C22.0569 17.3848 21.9105 17.4153 21.3687 17.3802C20.7874 17.3425 20.7037 17.3062 20.4018 16.9602C19.9418 16.4329 19.8497 15.9601 19.882 14.2889L19.9097 12.8439H22.9779H26.0462L26.0461 10.8839C26.0461 8.6631 25.9673 8.12334 25.4882 7.06281C24.6868 5.28875 22.829 4.44369 20.5929 4.83619ZM46.2826 4.87549C44.6789 5.33936 43.6467 6.47568 43.2588 8.20425C43.0105 9.31017 42.9109 9.22811 44.5007 9.22811H45.893L45.9559 8.83508C46.0636 8.16107 46.1992 7.79959 46.4289 7.57363C46.9366 7.07402 47.851 6.9799 48.4068 7.36989C48.9138 7.72571 49.0947 8.19377 49.0948 9.15034L49.095 9.96343L48.671 10.1408C47.8398 10.4883 45.8818 11.5406 45.3229 11.9402C43.7345 13.0757 42.9087 14.6396 42.9087 16.5122C42.9087 17.5826 43.1045 18.2862 43.5568 18.8413C44.2708 19.7176 45.104 19.9929 46.4854 19.809C47.3166 19.6985 48.0388 19.3793 48.7522 18.8074C48.9966 18.6114 49.2186 18.4511 49.2456 18.4511C49.2725 18.4511 49.2946 18.5631 49.2946 18.7C49.2946 18.8369 49.3226 19.0963 49.357 19.2764L49.4193 19.6039H50.7289L52.0385 19.604L52.014 16.8004C51.935 7.7932 51.9305 7.62761 51.7483 7.07737C51.3587 5.90113 50.467 5.11278 49.2149 4.83766C48.5169 4.68422 46.8701 4.70549 46.2826 4.87549ZM67.3047 4.86386C66.1401 5.17922 65.1564 6.00227 64.7182 7.0278C64.199 8.24303 64.1445 8.83037 64.1877 12.7391C64.23 16.5549 64.2403 16.6409 64.7923 17.785C65.5144 19.2819 67.222 20.1524 69.0934 19.9779C71.6961 19.7353 73.0388 18.1697 73.2125 15.1752L73.2721 14.148L71.835 14.1773L70.3979 14.2064L70.343 15.3323C70.299 16.2371 70.2488 16.5137 70.0874 16.7407C69.7017 17.2833 69.3851 17.452 68.7515 17.452C68.0401 17.452 67.7073 17.2362 67.3795 16.5625C67.1588 16.1088 67.155 16.0364 67.1572 12.3239C67.1592 8.82607 67.1736 8.51406 67.351 8.10364C67.608 7.50886 68.0468 7.23752 68.7515 7.23752C69.796 7.23752 70.3415 7.90964 70.3458 9.2019L70.348 9.85695H71.7449H73.1418V9.49935C73.1418 8.84944 72.8474 7.51169 72.5764 6.9298C72.1874 6.0946 71.425 5.32417 70.6972 5.03092C69.9659 4.73621 68.1131 4.64492 67.3047 4.86386ZM77.7316 4.88335C76.2309 5.32165 75.2853 6.40011 74.8657 8.15164C74.6087 9.2237 74.6107 15.3631 74.8682 16.3549C75.469 18.6685 76.9274 19.817 79.2581 19.812C80.0705 19.8103 81.0509 19.5963 81.6011 19.3007C82.1677 18.9965 82.8143 18.2584 83.1262 17.5602C83.4095 16.9256 83.7183 15.5877 83.7183 14.994V14.6723L82.2965 14.7014L80.8746 14.7304L80.8123 15.5368C80.7109 16.8466 80.2237 17.4034 79.18 17.4026C78.5146 17.4021 78.0746 17.1143 77.822 16.5143C77.6509 16.1079 77.63 15.8508 77.6542 14.4471L77.6817 12.8439L80.708 12.8222L83.7343 12.8004L83.7226 10.7593C83.7101 8.5695 83.6185 7.94454 83.1661 6.96334C82.8493 6.27613 81.982 5.41577 81.2491 5.06142C80.7468 4.81869 80.5254 4.78023 79.4777 4.7535C78.631 4.73202 78.1198 4.77006 77.7316 4.88335ZM90.716 4.83441C89.8242 5.01845 88.9507 5.64865 88.3301 6.55554L88.1149 6.86996L88.1118 5.9529L88.1086 5.03585H86.7616H85.4146V12.3199V19.6039H86.8115H88.2084V14.2536C88.2084 9.86271 88.2335 8.85248 88.3486 8.62023C88.8591 7.58967 90.1556 7.29275 91.8254 7.82422C91.9863 7.87537 92 7.75589 92 6.30055V4.72143L91.5759 4.73295C91.3427 4.73924 90.9557 4.78484 90.716 4.83441ZM58.8235 5.04916C58.2565 5.25374 57.1714 5.97449 56.8853 6.33649C56.6467 6.63844 56.5785 6.51236 56.5785 5.76949V5.03585H55.2314H53.8844V12.3723V19.7088H55.3312H56.778V13.9606C56.778 7.4486 56.6782 8.15353 57.6841 7.56347C58.3993 7.14392 59.0294 7.11741 59.4415 7.48968L59.7215 7.74258L59.7488 13.7257L59.7762 19.7088H61.1736H62.5711L62.5432 13.237L62.5153 6.76515L62.253 6.1775C61.9762 5.55747 61.5517 5.14694 60.9788 4.9455C60.4565 4.76188 59.4915 4.80821 58.8235 5.04916ZM22.4365 7.41653C22.9386 7.80955 23.0938 8.24041 23.1366 9.35922L23.176 10.3863L21.5428 10.3574L19.9097 10.3286L19.9361 9.38888C19.9701 8.1879 20.1881 7.66439 20.7878 7.344C21.2998 7.07056 22.036 7.10295 22.4365 7.41653ZM32.8864 7.29893C33.1112 7.41097 33.2966 7.62646 33.4503 7.95398C33.6763 8.43588 33.6792 8.49027 33.6792 12.2675C33.6792 16.445 33.6544 16.6619 33.1208 17.1333C32.5554 17.6332 31.7926 17.5679 30.8608 16.94L30.5371 16.7218L30.5615 12.2706L30.586 7.81961L31.2183 7.47574C31.9214 7.09362 32.3774 7.0452 32.8864 7.29893ZM79.8551 7.27566C80.5627 7.59239 80.8248 8.19503 80.8248 9.50574V10.381H79.2283H77.6318V9.44453C77.6318 8.92951 77.6797 8.3753 77.7383 8.21306C78.0553 7.33404 79.0255 6.90444 79.8551 7.27566ZM48.6296 16.5822C48.3711 16.8578 48.0152 17.1553 47.8389 17.2432C47.3821 17.4708 46.6208 17.4471 46.2239 17.193C45.837 16.9451 45.7018 16.6228 45.7048 15.9551C45.7095 14.8901 46.3929 13.9745 47.9975 12.8835L49.0452 12.1713L49.0724 14.126L49.0996 16.0809L48.6296 16.5822Z" fill="white"/>
</svg>
