<svg width="126" height="20" viewBox="0 0 126 20" fill="none" xmlns="http://www.w3.org/2000/svg">
<path fill-rule="evenodd" clip-rule="evenodd" d="M7.34279 0.244364C5.9126 0.595991 3.92302 1.84931 2.65773 3.19571C-0.641248 6.70595 -0.9092 11.6062 2.07905 13.7749C3.21868 14.6019 4.12249 14.8405 6.11473 14.8405C7.03981 14.8405 7.84921 14.8953 7.91326 14.9623C7.97731 15.0294 7.84145 15.7867 7.6114 16.645C7.38135 17.5036 7.10409 18.6095 6.99571 19.1029L6.79824 20L7.72222 19.8452C9.49017 19.5493 11.3554 18.0049 12.3652 16.001L12.8913 14.9565L14.9797 14.8231C16.2905 14.7393 17.3357 14.5432 17.7858 14.2964C18.8129 13.7336 20.0287 12.5629 20.6409 11.5475C21.5956 9.96366 21.601 9.96644 17.5965 9.96644H14.0247L14.165 9.44423C14.2422 9.15712 14.5278 8.01938 14.7996 6.91623L15.2938 4.91067L17.2894 4.80971C19.5945 4.69297 20.8607 4.17493 22.1639 2.81553C22.8652 2.0842 23.8281 0.519399 23.8281 0.111604C23.8281 -0.104014 8.24926 0.0215505 7.34279 0.244364ZM109.121 3.54548C106.395 4.6115 104.522 6.71848 103.714 9.62642C102.826 12.8259 104.085 15.6742 106.739 16.4714C108.749 17.0751 111.639 16.4949 113.069 15.2005L113.873 14.4728L113.16 13.8443C112.337 13.1195 112.094 13.0877 111.006 13.5639C110.568 13.7554 109.764 13.9121 109.218 13.9121C108.385 13.9121 108.104 13.7854 107.472 13.123C106.801 12.4202 106.719 12.1981 106.723 11.0921C106.729 9.47742 107.308 8.17953 108.497 7.11374C109.542 6.17676 110.484 5.88989 111.759 6.12013C114.117 6.54673 114.101 6.54835 114.982 5.77802C115.951 4.93133 115.872 4.68183 114.379 3.87483C113.239 3.25861 110.322 3.07572 109.121 3.54548ZM28.1499 3.78941C27.784 3.95629 27.3634 4.24618 27.2149 4.43348C26.9831 4.72616 24.6238 13.4621 24.1606 15.744L24.0006 16.5313L25.0708 16.405C26.5311 16.2326 27.1499 15.4716 27.6958 13.1766L28.1176 11.4022L30.0914 11.3226C32.0001 11.2455 32.0865 11.2179 32.7118 10.485C33.0673 10.0681 33.3583 9.51989 33.3583 9.26644C33.3583 8.83753 33.2047 8.80596 31.1174 8.80596H28.8762L29.0263 7.96879C29.3778 6.00733 29.3603 6.02079 31.5498 6.02079C33.1825 6.02079 33.6165 5.94142 34.0819 5.55799C34.6475 5.09217 35.2064 3.85579 34.9655 3.6035C34.6969 3.32243 28.8221 3.48258 28.1499 3.78941ZM37.884 3.90523C37.5085 4.14499 37.087 4.64075 36.9469 5.007C36.6892 5.68147 34.0232 16.0235 34.0232 16.3493C34.0232 16.6731 35.8598 16.2739 36.4418 15.8234C36.8707 15.4917 37.151 14.8732 37.5542 13.3695C38.0633 11.4709 38.1271 11.359 38.6998 11.359C39.2521 11.359 39.3501 11.4985 39.7977 12.9257C40.5072 15.1875 40.7829 15.6609 41.6377 16.0857C42.2973 16.4134 44.2182 16.6302 44.2182 16.3767C44.2182 16.2765 43.378 13.9311 42.6938 12.1212L42.2359 10.9108L43.1958 10.4662C44.595 9.81814 45.3902 8.61123 45.5041 6.96334C45.5887 5.73671 45.5411 5.56449 44.9075 4.80878C44.0624 3.80079 42.9429 3.4675 40.4077 3.46866C38.9977 3.46935 38.4068 3.57147 37.884 3.90523ZM49.831 3.80636C49.0451 4.16448 48.536 4.86402 48.3039 5.90475C48.2184 6.28771 47.6138 8.68991 46.96 11.243C46.3062 13.796 45.7709 16.0223 45.7705 16.1904C45.7698 16.4336 46.5316 16.4809 49.52 16.4225C53.1144 16.3521 53.294 16.3261 53.8297 15.7983C54.1373 15.4957 54.4888 14.9472 54.6111 14.5798L54.8334 13.9121H52.0746C48.9952 13.9121 49.1211 13.9984 49.557 12.1855L49.7984 11.1817L51.718 11.084C53.8082 10.9775 54.5996 10.6254 55.044 9.60414C55.1847 9.28083 55.2997 8.91667 55.2997 8.79505C55.2997 8.66833 54.2678 8.57386 52.8853 8.57386H50.4711L50.7016 7.58745C51.057 6.06652 51.1355 6.02079 53.4015 6.02079C55.3354 6.02079 55.4677 5.98853 56.0183 5.38253C56.337 5.0316 56.6656 4.45692 56.7485 4.10599L56.8992 3.46773L53.7168 3.47678C51.5147 3.48305 50.3179 3.5847 49.831 3.80636ZM60.2454 3.80752C59.8571 3.98438 59.3952 4.42397 59.2193 4.78488C58.9447 5.34702 56.1863 15.842 56.1863 16.3243C56.1863 16.4185 57.874 16.4628 59.9367 16.4225C63.5311 16.3521 63.7106 16.3261 64.2463 15.7983C64.5539 15.4957 64.9054 14.9472 65.0278 14.5798L65.2501 13.9121H62.4912C60.9515 13.9121 59.7323 13.8174 59.7323 13.6976C59.7323 13.5797 59.8491 12.9531 59.9921 12.3051L60.2516 11.1269L61.7097 11.1255C63.7842 11.1237 64.7645 10.786 65.2838 9.89426C66.022 8.62608 65.9471 8.57386 63.3893 8.57386C61.9017 8.57386 61.0621 8.48543 61.0621 8.32854C61.0621 8.19346 61.1736 7.61902 61.3101 7.052L61.5579 6.02079L63.6927 6.01569C65.9597 6.01012 66.4819 5.80402 67.0202 4.70156C67.6049 3.50417 67.5165 3.46703 64.1096 3.47678C61.9227 3.48305 60.7341 3.5847 60.2454 3.80752ZM69.8188 3.75785C69.7667 3.91753 69.4238 5.25325 69.057 6.7266C68.69 8.19995 67.9879 10.9642 67.4963 12.8693C67.005 14.7746 66.6029 16.363 66.6029 16.3992C66.6029 16.5963 72.8513 16.4255 73.4345 16.2126C74.1355 15.9566 75.0249 14.7523 75.0249 14.0588C75.0249 13.7325 74.7009 13.68 72.6802 13.68H70.3354L70.4872 12.9257C70.5708 12.5107 70.9777 10.8667 71.3915 9.27247C71.8053 7.67797 72.1437 6.14241 72.1437 5.85995C72.1437 5.04924 71.7162 4.2738 71.0377 3.85417C70.2922 3.39299 69.9469 3.3656 69.8188 3.75785ZM83.7545 3.62741C83.4969 3.68033 83.0351 4.0055 82.7279 4.34993C82.0038 5.16227 74.5858 15.7192 74.4187 16.1757C74.3108 16.4698 74.5253 16.5081 75.8041 16.4229C77.3097 16.3227 77.3223 16.3159 78.3392 15.1083L79.3609 13.8947L81.6809 13.9615C83.8496 14.0237 84.0054 14.0602 84.0676 14.5183C84.1769 15.3188 85.2917 16.2563 86.3032 16.3983C87.112 16.5118 87.2146 16.4731 87.2146 16.0543C87.2146 15.7946 86.9652 12.9925 86.6605 9.82742C86.3558 6.66208 86.1064 3.93633 86.1064 3.77015C86.1064 3.4733 84.868 3.3981 83.7545 3.62741ZM91.6379 4.45414C91.5016 4.99655 91.1603 6.32832 90.8797 7.41338C90.5989 8.49843 89.9969 10.8456 89.5417 12.6293C89.0865 14.413 88.6654 16.0058 88.6055 16.1688C88.4429 16.6128 90.0062 16.5469 90.7645 16.0778C91.623 15.5465 91.7722 15.1891 92.7303 11.3681C93.1909 9.53126 93.6208 8.12499 93.6858 8.24312C93.7507 8.36126 94.2299 9.81558 94.7505 11.4751C95.9533 15.3082 96.1663 15.7334 97.0847 16.1354C97.7868 16.4424 99.6259 16.6016 99.6259 16.3554C99.6259 16.2948 100.324 13.5096 101.177 10.1656C102.031 6.82176 102.729 3.93308 102.729 3.74624C102.729 3.48073 102.524 3.43547 101.787 3.53898C100.195 3.76249 99.6505 4.6368 98.7591 8.39979C98.3436 10.1551 97.9417 11.5911 97.8664 11.5911C97.791 11.5911 97.2955 10.2074 96.7651 8.51584C96.2347 6.82432 95.6576 5.14509 95.4823 4.78395C95.1044 4.00503 93.9978 3.46773 92.7711 3.46773C91.9165 3.46773 91.8775 3.50161 91.6379 4.45414ZM118.756 3.92032C118.367 4.16843 117.948 4.56996 117.824 4.8125C117.564 5.32056 114.918 15.6278 114.918 16.1309C114.918 16.4076 115.519 16.4649 118.409 16.4642C121.507 16.4635 121.982 16.4113 122.626 16C123.269 15.5895 123.784 14.7574 123.784 14.1291C123.784 14.0061 122.578 13.9121 120.998 13.9121C118.451 13.9121 118.223 13.8775 118.326 13.5059C118.387 13.2826 118.548 12.6558 118.682 12.1133L118.925 11.1269H120.475C122.692 11.1269 123.925 10.4771 124.326 9.09608C124.478 8.57642 124.466 8.57386 122.033 8.57386C120.174 8.57386 119.609 8.50423 119.68 8.28374C119.731 8.12429 119.881 7.54962 120.014 7.00721L120.255 6.02079H122.302C124.62 6.02079 125.181 5.76711 125.691 4.48919C125.861 4.06329 126 3.65921 126 3.5912C126 3.5232 124.529 3.46819 122.731 3.46866C119.885 3.46935 119.371 3.52784 118.756 3.92032ZM10.5303 4.97961C10.5303 5.04529 10.2643 6.19417 9.93941 7.53268L9.34832 9.96644H7.70848C5.81398 9.96644 5.37581 9.78239 4.99837 8.82847C4.52475 7.63085 5.34456 6.01383 6.87337 5.13047C7.30888 4.87888 10.5303 4.74612 10.5303 4.97961ZM42.2348 6.49683C42.6927 6.97634 42.6699 7.6283 42.1723 8.2798C41.8875 8.65301 40.5533 9.03504 39.5296 9.03666L38.7195 9.03806L39.0522 7.7035C39.2353 6.96938 39.431 6.29072 39.4875 6.19487C39.544 6.09901 40.0828 6.02079 40.6852 6.02079C41.4939 6.02079 41.899 6.1452 42.2348 6.49683ZM83.8682 10.4887L83.8901 11.359H82.3329H80.7758L82.1661 9.21213L83.5561 7.06523L83.7011 8.34177C83.7811 9.04386 83.8562 10.0101 83.8682 10.4887Z" fill="white"/>
<path fill-rule="evenodd" clip-rule="evenodd" d="M7.34279 0.244364C5.9126 0.595991 3.92302 1.84931 2.65773 3.19571C-0.641248 6.70595 -0.9092 11.6062 2.07905 13.7749C3.21868 14.6019 4.12249 14.8405 6.11473 14.8405C7.03981 14.8405 7.84921 14.8953 7.91326 14.9623C7.97731 15.0294 7.84145 15.7867 7.6114 16.645C7.38135 17.5036 7.10409 18.6095 6.99571 19.1029L6.79824 20L7.72222 19.8452C9.49017 19.5493 11.3554 18.0049 12.3652 16.001L12.8913 14.9565L14.9797 14.8231C16.2905 14.7393 17.3357 14.5432 17.7858 14.2964C18.8129 13.7336 20.0287 12.5629 20.6409 11.5475C21.5956 9.96366 21.601 9.96644 17.5965 9.96644H14.0247L14.165 9.44423C14.2422 9.15712 14.5278 8.01938 14.7996 6.91623L15.2938 4.91067L17.2894 4.80971C19.5945 4.69297 20.8607 4.17493 22.1639 2.81553C22.8652 2.0842 23.8281 0.519399 23.8281 0.111604C23.8281 -0.104014 8.24926 0.0215505 7.34279 0.244364ZM10.5303 4.97961C10.5303 5.04529 10.2643 6.19417 9.93941 7.53268L9.34832 9.96644H7.70848C5.81398 9.96644 5.37581 9.78239 4.99837 8.82847C4.52475 7.63085 5.34456 6.01383 6.87337 5.13047C7.30888 4.87888 10.5303 4.74612 10.5303 4.97961Z" fill="#2EC846"/>
</svg>
