<svg width="154" height="20" viewBox="0 0 154 20" fill="none" xmlns="http://www.w3.org/2000/svg">
<path d="M32.6497 0C29.9741 0 27.4189 1.05217 25.5261 2.93043C23.6334 4.8 22.5752 7.34783 22.5752 10C22.5752 15.5217 27.0748 20 32.6325 20C38.1903 20 42.6984 15.5304 42.707 10.0087C42.707 4.48696 38.2075 0.00869565 32.6497 0ZM101.081 18.513H105.202L106.32 16.0348H113.272L114.364 18.513H118.64L110.089 0.965217H109.83L101.081 18.513ZM34.878 6.97391H41.2015C41.2531 7.13913 41.3133 7.29565 41.3563 7.46087L36.2373 11.1739L38.1903 17.1304C38.0526 17.2348 37.915 17.3391 37.7687 17.4348L32.6411 13.7478L27.5221 17.4348C27.3845 17.3391 27.2468 17.2348 27.1092 17.1304L29.0535 11.1478L23.9431 7.46087C23.9861 7.29565 24.0378 7.13043 24.098 6.97391L30.4387 6.95652L32.3916 1C32.4777 0.991304 32.5637 0.991304 32.6497 0.991304C32.7358 0.991304 32.8218 0.991304 32.9078 1L34.878 6.97391ZM133.034 2.52174C131.481 1.4579 129.644 0.896815 127.768 0.913043C126.581 0.904348 125.402 1.13913 124.301 1.5913C123.217 2.03478 122.228 2.69565 121.402 3.53043C120.585 4.36522 119.939 5.36522 119.509 6.45217C119.07 7.58261 118.855 8.7913 118.864 10C118.847 11.4 119.148 12.7826 119.741 14.0522C120.757 16.1826 122.598 17.8174 124.843 18.5913C125.772 18.9043 126.753 19.0609 127.743 19.0609C128.663 19.0609 129.584 18.9304 130.461 18.6696C131.317 18.4251 132.13 18.0466 132.87 17.5478L133.128 13.0261C132.354 13.6957 131.485 14.2435 130.547 14.6522C129.73 15 128.844 15.1826 127.949 15.1913C127.286 15.2178 126.625 15.1021 126.01 14.8518C125.395 14.6015 124.839 14.2223 124.379 13.7391C123.467 12.7739 123.002 11.513 123.002 9.95652C122.951 8.54783 123.45 7.17391 124.387 6.13043C124.842 5.64024 125.395 5.2534 126.009 4.99554C126.623 4.73769 127.284 4.61472 127.949 4.63478C128.775 4.63478 129.601 4.82609 130.341 5.1913C131.184 5.61739 131.95 6.1913 132.595 6.87826L133.034 2.52174ZM61.2645 18.513H65.3081V10.6696L71.4164 18.513H76.3548L69.3774 9.5913L75.8472 1.48696H70.9691L65.3081 8.89565V1.48696H61.2645V18.513ZM45.8301 18.513H49.8048V11.8261H50.3812L54.9668 18.513H59.6384L54.4076 11.1913C55.3626 10.8 56.1885 10.1478 56.7821 9.30435C57.3413 8.46956 57.6253 7.48696 57.5994 6.48696C57.608 5.74783 57.4274 5.02609 57.0746 4.37391C56.7219 3.70435 56.2143 3.12174 55.5949 2.68696C54.9722 2.24734 54.2709 1.93429 53.5301 1.76522C52.446 1.55652 51.3448 1.46087 50.2436 1.48696H45.8301V18.513ZM77.3269 18.2348C78.1357 18.4957 78.9616 18.7043 79.7961 18.8609C80.4844 18.9826 81.1812 19.0522 81.8867 19.0609C83.7622 19.0609 85.2764 18.5478 86.4207 17.5304C86.9823 17.0287 87.4271 16.4074 87.7232 15.7113C88.0192 15.0152 88.159 14.2615 88.1328 13.5043C88.15 12.513 87.8488 11.5304 87.2552 10.7217C86.6788 9.93913 85.5431 9.08696 83.8655 8.16522L81.8523 7.06087C81.5082 6.89565 81.207 6.65217 80.9662 6.35652C80.7769 6.12174 80.6736 5.82609 80.665 5.53043C80.6564 5.13043 80.8457 4.75652 81.164 4.53043C81.5684 4.26087 82.0416 4.13043 82.5234 4.15652C83.1772 4.18261 83.8139 4.33043 84.4161 4.58261C85.242 4.89565 86.0249 5.29565 86.7734 5.76522V1.78261C85.9991 1.51304 85.2076 1.29565 84.4075 1.12174C83.7536 0.991304 83.0998 0.921739 82.4287 0.913043C80.7855 0.913043 79.4434 1.34783 78.4024 2.22609C77.9034 2.62991 77.5027 3.14408 77.2313 3.72901C76.9598 4.31394 76.8248 4.95403 76.8365 5.6C76.8279 6.56522 77.1119 7.50435 77.6539 8.30435C78.3133 9.20593 79.1701 9.94105 80.1574 10.4522L81.3189 11.1043C81.4565 11.1826 81.6458 11.2957 81.8867 11.4348C83.4181 12.2957 84.1838 13.087 84.1838 13.7739C84.1838 14.2522 83.9429 14.7043 83.5386 14.9652C83.031 15.2957 82.4373 15.4609 81.8351 15.4348C81.0952 15.4261 80.3639 15.2957 79.6757 15.0435C78.7396 14.6871 77.8406 14.2385 76.9914 13.7043L77.3269 18.2348ZM91.1095 18.513H95.1961V12.287C95.2907 12.2957 95.394 12.3043 95.5058 12.3043H96.0048C98.1212 12.3043 99.7903 11.8 101.021 10.7913C101.627 10.3043 102.111 9.67961 102.434 8.96801C102.757 8.25641 102.909 7.47791 102.879 6.69565C102.879 5.93913 102.698 5.18261 102.354 4.49565C102.001 3.8087 101.494 3.21739 100.866 2.76522C100.238 2.30435 99.515 1.96522 98.7493 1.78261C97.6825 1.56522 96.5984 1.46087 95.5144 1.48696H91.1095V18.513ZM135.787 18.513H146.446V14.9304H139.761V11.5652H145.405V8.07826H139.761V5H145.612L146.773 1.48696H135.787V18.513ZM109.787 7.77391L112.007 13.1043H107.499L109.787 7.77391ZM50.4759 4.5913C51.6717 4.5913 52.5235 4.77391 53.0569 5.13913C53.5903 5.50435 53.8484 6.08696 53.8484 6.89565C53.8914 7.5913 53.5817 8.26087 53.0311 8.67826C52.4891 9.09565 51.6975 9.30435 50.6651 9.30435H49.8048V4.5913H50.4759ZM95.7553 4.61739C96.9254 4.61739 97.7857 4.7913 98.3191 5.15652C98.8697 5.53913 99.1708 6.1913 99.1192 6.86087C99.1536 7.53043 98.8525 8.17391 98.3105 8.56522C97.7599 8.96522 96.977 9.15652 95.9446 9.15652H95.1961V4.61739H95.7553ZM151.832 1.43478C151.514 1.43478 151.204 1.51304 150.929 1.66957C150.645 1.81739 150.404 2.05217 150.249 2.33043C149.922 2.89565 149.913 3.5913 150.24 4.15652C150.404 4.43478 150.636 4.66957 150.92 4.82609C151.488 5.14783 152.185 5.14783 152.744 4.82609C153.028 4.66957 153.269 4.43478 153.424 4.15652C153.751 3.5913 153.751 2.89565 153.415 2.33043C153.26 2.05217 153.028 1.81739 152.735 1.66087C152.46 1.51304 152.15 1.42609 151.832 1.42609V1.43478ZM151.832 1.7913C152.09 1.7913 152.34 1.85217 152.555 1.97391C152.787 2.10435 152.976 2.28696 153.105 2.51304C153.234 2.73913 153.303 2.9913 153.303 3.25217C153.303 3.50435 153.243 3.75652 153.114 3.97391C152.985 4.2087 152.796 4.3913 152.563 4.52174C152.116 4.77391 151.557 4.77391 151.101 4.52174C150.87 4.39752 150.682 4.20682 150.559 3.97391C150.292 3.52174 150.292 2.96522 150.559 2.51304C150.688 2.28696 150.877 2.10435 151.109 1.97391C151.333 1.85217 151.582 1.7913 151.832 1.7913ZM151.006 4.21739H151.402V3.42609H151.505C151.601 3.42417 151.695 3.45478 151.772 3.51304C151.884 3.62609 151.978 3.75652 152.038 3.90435L152.202 4.21739H152.692L152.469 3.83478C152.383 3.69565 152.34 3.61739 152.322 3.6C152.288 3.54783 152.236 3.49565 152.193 3.45217C152.154 3.41719 152.107 3.3932 152.056 3.38261C152.202 3.36522 152.34 3.29565 152.443 3.1913C152.519 3.10778 152.566 3.00145 152.577 2.88847C152.588 2.77548 152.562 2.66199 152.503 2.56522C152.459 2.48749 152.397 2.42181 152.322 2.37391C152.228 2.3294 152.125 2.30568 152.021 2.30435C151.97 2.29565 151.763 2.29565 151.393 2.29565H151.006V4.21739ZM151.402 3.12174V2.6H151.557C151.703 2.5913 151.841 2.6087 151.978 2.62609C152.03 2.64348 152.081 2.67826 152.116 2.72174C152.142 2.75652 152.159 2.8087 152.159 2.86087C152.159 2.91304 152.142 2.96522 152.116 3.0087C152.081 3.05217 152.038 3.07826 151.987 3.09565C151.841 3.12174 151.703 3.13043 151.557 3.12174H151.402ZM0 1.48696H4.14682L7.47631 10.6696L11.0639 0.93913H11.3822L14.9956 10.6696L18.2907 1.48696H22.1106L14.9956 19.0609H14.7375L11.0639 9.33043L7.47631 19.0609H7.1752L0 1.48696Z" fill="white"/>
</svg>
